<svg width="170" height="276" viewBox="0 0 170 276" fill="none" xmlns="http://www.w3.org/2000/svg">
<path fill-rule="evenodd" clip-rule="evenodd" d="M100.089 19.0188H99.6201C93.1374 19.0188 87.8818 13.7635 87.8818 7.28085V0.298828H111.828V7.28085C111.828 13.7635 106.572 19.0188 100.089 19.0188Z" fill="#DCEEFF"/>
<path fill-rule="evenodd" clip-rule="evenodd" d="M13.4279 208.822H8.00977V195.705H16.223L13.4279 208.822Z" fill="#B6D4FF"/>
<path fill-rule="evenodd" clip-rule="evenodd" d="M2.5918 195.705H96.6996V22.466H2.5918V195.705Z" fill="#ECF6FF"/>
<path fill-rule="evenodd" clip-rule="evenodd" d="M8.01024 208.822H2.5918V195.705H10.5511L8.01024 208.822Z" fill="#ECF6FF"/>
<path fill-rule="evenodd" clip-rule="evenodd" d="M101.056 208.822H96.6992V195.705H103.098L101.056 208.822Z" fill="#CCE3FF"/>
<path fill-rule="evenodd" clip-rule="evenodd" d="M91.2811 208.822H96.6993V195.705H88.7402L91.2811 208.822Z" fill="#ECF6FF"/>
<path fill-rule="evenodd" clip-rule="evenodd" d="M46.4136 208.822H40.9951V195.705H48.4464L46.4136 208.822Z" fill="#B6D4FF"/>
<path fill-rule="evenodd" clip-rule="evenodd" d="M124.694 208.822H119.704L117.832 195.705H124.694V208.822Z" fill="#B6D4FF"/>
<path fill-rule="evenodd" clip-rule="evenodd" d="M129.685 208.822H124.694L123.056 195.705H129.685V208.822Z" fill="#CCE3FF"/>
<path fill-rule="evenodd" clip-rule="evenodd" d="M40.9949 208.822H35.5768L33.5439 195.705H40.9949V208.822Z" fill="#C5E0FC"/>
<path fill-rule="evenodd" clip-rule="evenodd" d="M6.57129 122.001H92.7197V91.384H6.57129V122.001Z" fill="#B6D4FF"/>
<path fill-rule="evenodd" clip-rule="evenodd" d="M6.57129 122.001H33.2224V91.384H6.57129V122.001Z" fill="#CCE3FF"/>
<path fill-rule="evenodd" clip-rule="evenodd" d="M6.57129 155.565H92.7197V124.948H6.57129V155.565Z" fill="#B6D4FF"/>
<path fill-rule="evenodd" clip-rule="evenodd" d="M6.57129 155.565H33.2224V124.948H6.57129V155.565Z" fill="#CCE3FF"/>
<path fill-rule="evenodd" clip-rule="evenodd" d="M6.57129 189.129H92.7197V158.512H6.57129V189.129Z" fill="#B6D4FF"/>
<path fill-rule="evenodd" clip-rule="evenodd" d="M6.57129 189.129H33.2224V158.512H6.57129V189.129Z" fill="#CCE3FF"/>
<path fill-rule="evenodd" clip-rule="evenodd" d="M6.57129 56.0762H92.7197V25.4597H6.57129V56.0762Z" fill="#B6D4FF"/>
<path fill-rule="evenodd" clip-rule="evenodd" d="M6.57129 56.0762H33.2224V25.4597H6.57129V56.0762Z" fill="#CCE3FF"/>
<path fill-rule="evenodd" clip-rule="evenodd" d="M6.57129 88.4367H92.7197V59.233H6.57129V88.4367Z" fill="#B6D4FF"/>
<path fill-rule="evenodd" clip-rule="evenodd" d="M6.57129 88.4367H33.2224V59.233H6.57129V88.4367Z" fill="#CCE3FF"/>
<path fill-rule="evenodd" clip-rule="evenodd" d="M96.6992 195.705H129.685V22.466H96.6992V195.705Z" fill="#CCE3FF"/>
<path fill-rule="evenodd" clip-rule="evenodd" d="M0.375 22.4662H93.5854V16.846H0.375V22.4662Z" fill="#E6F4FF"/>
<path fill-rule="evenodd" clip-rule="evenodd" d="M93.5854 22.4662H131.845V16.846H93.5854V22.4662Z" fill="#CCE3FF"/>
<path fill-rule="evenodd" clip-rule="evenodd" d="M80.9725 147.465V147.465C80.9725 148.956 79.7639 150.165 78.2727 150.165H56.5825V144.766H78.2727C79.7639 144.766 80.9725 145.974 80.9725 147.465Z" fill="#CCE3FF"/>
<path fill-rule="evenodd" clip-rule="evenodd" d="M66.2094 147.465V147.466C66.2094 148.329 65.5095 149.028 64.6465 149.028H56.6153C56.5973 149.028 56.583 149.014 56.583 148.996V145.935C56.583 145.917 56.5973 145.902 56.6153 145.902H64.6465C65.5095 145.902 66.2094 146.602 66.2094 147.465Z" fill="#DCEEFF"/>
<path fill-rule="evenodd" clip-rule="evenodd" d="M84.0365 150.165V155.564H60.3375C58.8466 155.564 57.6377 154.356 57.6377 152.865C57.6377 151.374 58.8466 150.165 60.3375 150.165H84.0365Z" fill="#CCE3FF"/>
<path fill-rule="evenodd" clip-rule="evenodd" d="M84.0364 151.317V154.413H74.3344C73.4796 154.413 72.7866 153.72 72.7866 152.865C72.7866 152.01 73.4796 151.317 74.3344 151.317H84.0364Z" fill="#DCEEFF"/>
<path fill-rule="evenodd" clip-rule="evenodd" d="M83.9354 139.366V144.766H61.7916C60.3007 144.766 59.0918 143.557 59.0918 142.066C59.0918 140.575 60.3007 139.366 61.7916 139.366H83.9354Z" fill="#CCE3FF"/>
<path fill-rule="evenodd" clip-rule="evenodd" d="M83.9361 140.518V143.614H75.7892C74.9344 143.614 74.2412 142.921 74.2412 142.066C74.2412 141.211 74.9344 140.518 75.7892 140.518H83.9361Z" fill="#DCEEFF"/>
<path fill-rule="evenodd" clip-rule="evenodd" d="M27.0435 122.06H41.891V101.303H27.0435V122.06Z" fill="#DCEEFF"/>
<path fill-rule="evenodd" clip-rule="evenodd" d="M27.0435 100.569H41.891V99.2867H27.0435V100.569Z" fill="#DCEEFF"/>
<path fill-rule="evenodd" clip-rule="evenodd" d="M42.4526 104.161H26.4821C25.5988 104.161 24.8828 103.445 24.8828 102.561V102.169C24.8828 101.285 25.5988 100.569 26.4821 100.569H42.4526C43.336 100.569 44.0519 101.285 44.0519 102.169V102.561C44.0519 103.445 43.336 104.161 42.4526 104.161Z" fill="#E6F4FF"/>
<path fill-rule="evenodd" clip-rule="evenodd" d="M15.2837 189.129H38.2175V173.047H15.2837V189.129Z" fill="#ECF6FF"/>
<path fill-rule="evenodd" clip-rule="evenodd" d="M38.2178 189.129H55.1245V173.047H38.2178V189.129Z" fill="#CCE3FF"/>
<path fill-rule="evenodd" clip-rule="evenodd" d="M33.7144 181.088H19.9971C19.9971 179.68 21.138 178.539 22.5459 178.539H31.1654C32.5732 178.539 33.7144 179.68 33.7144 181.088Z" fill="#CCE3FF"/>
<path fill-rule="evenodd" clip-rule="evenodd" d="M47.8965 189.129H70.8303V173.047H47.8965V189.129Z" fill="#ECF6FF"/>
<path fill-rule="evenodd" clip-rule="evenodd" d="M70.8301 189.129H87.7368V173.047H70.8301V189.129Z" fill="#CCE3FF"/>
<path fill-rule="evenodd" clip-rule="evenodd" d="M66.3277 181.088H52.6104C52.6104 179.68 53.7513 178.539 55.1592 178.539H63.7786C65.1865 178.539 66.3277 179.68 66.3277 181.088Z" fill="#CCE3FF"/>
<path fill-rule="evenodd" clip-rule="evenodd" d="M21.4775 56.0763H44.4113V39.9949H21.4775V56.0763Z" fill="#ECF6FF"/>
<path fill-rule="evenodd" clip-rule="evenodd" d="M44.4116 56.0763H61.3184V39.9949H44.4116V56.0763Z" fill="#CCE3FF"/>
<path fill-rule="evenodd" clip-rule="evenodd" d="M39.9093 48.0358H26.1919C26.1919 46.628 27.3329 45.4867 28.7407 45.4867H37.3602C38.768 45.4867 39.9093 46.628 39.9093 48.0358Z" fill="#CCE3FF"/>
<path fill-rule="evenodd" clip-rule="evenodd" d="M70.1264 84.4054L72.2381 63.8264H78.8416L80.9535 84.4054C81.1746 86.5617 79.4825 88.4366 77.3145 88.4366H73.7652C71.5975 88.4366 69.9051 86.5617 70.1264 84.4054Z" fill="#CCE3FF"/>
<path fill-rule="evenodd" clip-rule="evenodd" d="M18.9043 155.565H24.2267V135.233H18.9043V155.565Z" fill="#DCEEFF"/>
<path fill-rule="evenodd" clip-rule="evenodd" d="M13.5815 155.565H18.904V135.233H13.5815V155.565Z" fill="#ECF6FF"/>
<path fill-rule="evenodd" clip-rule="evenodd" d="M24.2266 155.565H29.549V135.233H24.2266V155.565Z" fill="#ECF6FF"/>
<path fill-rule="evenodd" clip-rule="evenodd" d="M43.5722 155.565H29.5493V135.233H43.5722C44.3212 135.233 44.9284 135.84 44.9284 136.589V154.208C44.9284 154.957 44.3212 155.565 43.5722 155.565Z" fill="#DCEEFF"/>
<path fill-rule="evenodd" clip-rule="evenodd" d="M31.8281 140.208H42.6494V138.195H31.8281V140.208Z" fill="#CCE3FF"/>
<path fill-rule="evenodd" clip-rule="evenodd" d="M34.2388 143.314H40.2378V141.301H34.2388V143.314Z" fill="#CCE3FF"/>
<path fill-rule="evenodd" clip-rule="evenodd" d="M60.998 123.672C54.515 123.672 49.2598 118.416 49.2598 111.934V108.564H72.7363V111.934C72.7363 118.416 67.481 123.672 60.998 123.672Z" fill="#ECF6FF"/>
<path fill-rule="evenodd" clip-rule="evenodd" d="M73.2811 79.0784C73.2811 83.0326 71.1922 86.5021 68.0586 88.4368H56.5555C53.4219 86.5021 51.333 83.0326 51.333 79.0784C51.333 77.2384 51.7858 75.5058 52.5837 73.9842H72.0303C72.8283 75.5058 73.2811 77.2384 73.2811 79.0784Z" fill="#DCEEFF"/>
<mask id="mask0" mask-type="alpha" maskUnits="userSpaceOnUse" x="109" y="39" width="58" height="53">
<path d="M109.238 68.1882C109.238 70.2009 109.447 72.166 109.847 74.0623C112.552 86.9742 124.005 91.3805 137.723 91.3805C153.452 91.3805 166.206 83.9195 166.206 68.1882C166.206 52.4569 153.452 39.7063 137.723 39.7063C126.909 39.7063 117.501 45.7311 112.677 54.6098C110.484 58.6457 109.238 63.2715 109.238 68.1882Z" fill="white"/>
</mask>
<g mask="url(#mask0)">
<path d="M109.238 68.1882C109.238 70.2009 109.447 72.166 109.847 74.0623C112.552 86.9742 124.005 91.3805 137.723 91.3805C153.452 91.3805 166.206 83.9195 166.206 68.1882C166.206 52.4569 153.452 39.7063 137.723 39.7063C126.909 39.7063 117.501 45.7311 112.677 54.6098C110.484 58.6457 109.238 63.2715 109.238 68.1882Z" fill="#EACB47"/>
<path d="M109.341 39.7066H166.205V96.5699H109.341V39.7066Z" fill="#FF743C"/>
</g>
<path fill-rule="evenodd" clip-rule="evenodd" d="M132.839 87.1382C132.839 87.1382 136.259 87.2392 137.716 86.4429L133.02 89.3913L132.839 87.1382Z" fill="#CF3E83"/>
<mask id="mask1" mask-type="alpha" maskUnits="userSpaceOnUse" x="119" y="65" width="27" height="30">
<path d="M133.982 65.5183C130.651 68.3834 125.722 71.0477 119.935 72.8591C120.303 76.78 121.526 83.5378 125.216 85.9924C126.96 87.1516 130.134 87.2945 132.839 87.1384L133.459 94.8197L141.497 91.6716C141.497 91.6716 139.491 82.336 140.565 80.6203C142.008 78.309 145.868 77.5642 145.873 74.3701C145.874 73.424 145.321 71.7861 143.279 71.7829C140.538 71.779 140.929 75.0628 140.929 75.0628C138.407 76.0436 135.837 69.3248 133.982 65.5183Z" fill="white"/>
</mask>
<g mask="url(#mask1)">
<path d="M133.982 65.5183C130.651 68.3834 125.722 71.0477 119.935 72.8591C120.303 76.78 121.526 83.5378 125.216 85.9924C126.96 87.1516 130.134 87.2945 132.839 87.1384L133.459 94.8197L141.497 91.6716C141.497 91.6716 139.491 82.336 140.565 80.6203C142.008 78.309 145.868 77.5642 145.873 74.3701C145.874 73.424 145.321 71.7861 143.279 71.7829C140.538 71.779 140.929 75.0628 140.929 75.0628C138.407 76.0436 135.837 69.3248 133.982 65.5183Z" fill="#5E93D1"/>
<path d="M119.921 58.22H146.634V96.0407H119.921V58.22Z" fill="#A47EF1"/>
</g>
<path fill-rule="evenodd" clip-rule="evenodd" d="M125.405 75.0565L123.448 79.8013L125.718 79.7558L125.405 75.0565Z" fill="#2437A8"/>
<path fill-rule="evenodd" clip-rule="evenodd" d="M127.488 75.2624C127.537 76.2103 128.094 76.9487 128.733 76.9119C129.372 76.8752 129.851 76.077 129.802 75.1291C129.753 74.1812 129.196 73.4425 128.557 73.4792C127.918 73.5163 127.439 74.3145 127.488 75.2624Z" fill="#1D1D23"/>
<path fill-rule="evenodd" clip-rule="evenodd" d="M121.488 75.111C121.537 76.0589 122.094 76.7973 122.733 76.7605C123.372 76.7238 123.851 75.9256 123.802 74.9777C123.753 74.0298 123.196 73.2911 122.557 73.3281C121.918 73.3649 121.439 74.1631 121.488 75.111Z" fill="#1D1D23"/>
<path d="M126.275 82.0287C126.275 82.0287 127.754 82.5061 129.237 80.8578" stroke="#24242B" stroke-width="3"/>
<path opacity="0.399019" fill-rule="evenodd" clip-rule="evenodd" d="M132.845 87.1383C132.845 87.1383 136.265 87.2393 137.722 86.4433L133.026 89.3914L132.845 87.1383Z" fill="black"/>
<mask id="mask2" mask-type="alpha" maskUnits="userSpaceOnUse" x="91" y="91" width="77" height="76">
<path d="M104.837 111.609C105.012 109.899 105.08 107.852 104.536 107.119C103.539 105.774 98.6078 101.707 98.6078 101.707L98.3449 105.101L97.1776 101.117C97.1776 101.117 95.8849 101.5 94.6336 102.155C93.5171 102.739 92.4579 103.581 91.9951 103.909C91.332 104.381 93.2596 111.632 94.6336 112.937C95.577 113.833 98.3586 114.527 100.009 114.875C103.162 119.966 111.565 132.688 116.207 131.638C121.029 130.548 125.504 113.691 125.504 113.691L117.369 109.728L113.828 120.644L104.837 111.609ZM160.11 148.552L158.131 153.616C158.131 153.616 157.83 154.919 157.662 156.46C157.494 158 157.429 158.937 156.409 161.249C155.698 162.86 157.999 162.379 158.651 161.479C159.324 160.551 159.664 156.746 160.772 157.499C161.879 158.252 162.213 162.081 161.965 165.696C161.926 166.264 162.321 166.727 162.603 166.891C163.06 167.155 163.727 164.918 163.727 164.918C163.727 164.918 163.967 165.704 164.695 165.376C164.953 165.26 165.721 163.738 165.721 163.738C165.721 163.738 166.316 162.987 166.629 162.15C167.181 160.671 167.632 157.926 167.525 157.12C167.274 155.219 166.71 152.011 165.967 150.234C166.405 145.667 168.086 127.332 167.159 123.849C166.098 119.863 164.019 114.463 164.019 114.463L156.042 119.155L159.462 126.455L160.11 148.552ZM132.541 91.6299C132.541 91.6299 130.41 93.1353 128.819 95.8272C126.642 99.5098 127.78 102.687 131.13 102.692C134.717 102.698 138.833 101.478 140.569 96.0451C141.446 93.2972 142.276 91.1602 142.276 91.1602L132.541 91.6299Z" fill="white"/>
</mask>
<g mask="url(#mask2)">
<path d="M104.837 111.609C105.012 109.899 105.08 107.852 104.536 107.119C103.539 105.774 98.6078 101.707 98.6078 101.707L98.3449 105.101L97.1776 101.117C97.1776 101.117 95.8849 101.5 94.6336 102.155C93.5171 102.739 92.4579 103.581 91.9951 103.909C91.332 104.381 93.2596 111.632 94.6336 112.937C95.577 113.833 98.3586 114.527 100.009 114.875C103.162 119.966 111.565 132.688 116.207 131.638C121.029 130.548 125.504 113.691 125.504 113.691L117.369 109.728L113.828 120.644L104.837 111.609ZM160.11 148.552L158.131 153.616C158.131 153.616 157.83 154.919 157.662 156.46C157.494 158 157.429 158.937 156.409 161.249C155.698 162.86 157.999 162.379 158.651 161.479C159.324 160.551 159.664 156.746 160.772 157.499C161.879 158.252 162.213 162.081 161.965 165.696C161.926 166.264 162.321 166.727 162.603 166.891C163.06 167.155 163.727 164.918 163.727 164.918C163.727 164.918 163.967 165.704 164.695 165.376C164.953 165.26 165.721 163.738 165.721 163.738C165.721 163.738 166.316 162.987 166.629 162.15C167.181 160.671 167.632 157.926 167.525 157.12C167.274 155.219 166.71 152.011 165.967 150.234C166.405 145.667 168.086 127.332 167.159 123.849C166.098 119.863 164.019 114.463 164.019 114.463L156.042 119.155L159.462 126.455L160.11 148.552ZM132.541 91.6299C132.541 91.6299 130.41 93.1353 128.819 95.8272C126.642 99.5098 127.78 102.687 131.13 102.692C134.717 102.698 138.833 101.478 140.569 96.0451C141.446 93.2972 142.276 91.1602 142.276 91.1602L132.541 91.6299Z" fill="#E576C6"/>
<path d="M92.1504 91.2799H167.528V166.921H92.1504V91.2799Z" fill="#A47EF1"/>
</g>
<path fill-rule="evenodd" clip-rule="evenodd" d="M94.481 102.257C95.2156 101.836 95.9146 101.521 96.2572 101.601C96.8567 101.74 95.7596 103.312 94.9593 104.348L94.9684 104.387C96.26 104.907 97.9527 105.677 98.2249 106.242C98.4149 106.635 97.6727 106.764 96.7531 106.782C97.5993 107.187 98.3377 107.626 98.5095 107.982C98.7296 108.439 97.6993 108.539 96.5912 108.523C97.5698 108.969 98.4866 109.477 98.6807 109.879C98.9281 110.392 97.5938 110.455 96.3461 110.409L96.6668 111.81C96.7649 112.24 97.1563 112.538 97.597 112.519L102.385 112.31C102.954 112.285 103.362 111.75 103.235 111.194L99.8427 96.3676C99.7443 95.9378 99.3531 95.6394 98.9128 95.6588L94.1249 95.868C93.5552 95.8931 93.1476 96.4281 93.2745 96.9841L94.481 102.257Z" fill="#020101"/>
<mask id="mask3" mask-type="alpha" maskUnits="userSpaceOnUse" x="92" y="95" width="11" height="18">
<path d="M93.5046 102.858C94.5204 102.196 95.7613 101.485 96.2568 101.6C96.8615 101.741 95.7396 103.34 94.9377 104.375C96.2331 104.895 97.9502 105.673 98.2245 106.241C98.4145 106.635 97.6722 106.764 96.7526 106.781C97.5989 107.187 98.3373 107.626 98.5091 107.982C98.7291 108.438 97.6989 108.539 96.5908 108.523C97.5694 108.969 98.4862 109.477 98.6803 109.879C99.0079 110.559 96.5619 110.449 95.2164 110.34L95.5638 111.858C95.6619 112.288 96.0533 112.586 96.494 112.567L101.282 112.358C101.851 112.333 102.259 111.798 102.132 111.242L98.7397 96.4155C98.6413 95.9857 98.2501 95.6876 97.8098 95.7066L93.0218 95.9158C92.4521 95.941 92.0446 96.4763 92.1715 97.032L93.5046 102.858Z" fill="white"/>
</mask>
<g mask="url(#mask3)">
<path d="M93.5046 102.858C94.5204 102.196 95.7613 101.485 96.2568 101.6C96.8615 101.741 95.7396 103.34 94.9377 104.375C96.2331 104.895 97.9502 105.673 98.2245 106.241C98.4145 106.635 97.6722 106.764 96.7526 106.781C97.5989 107.187 98.3373 107.626 98.5091 107.982C98.7291 108.438 97.6989 108.539 96.5908 108.523C97.5694 108.969 98.4862 109.477 98.6803 109.879C99.0079 110.559 96.5619 110.449 95.2164 110.34L95.5638 111.858C95.6619 112.288 96.0533 112.586 96.494 112.567L101.282 112.358C101.851 112.333 102.259 111.798 102.132 111.242L98.7397 96.4155C98.6413 95.9857 98.2501 95.6876 97.8098 95.7066L93.0218 95.9158C92.4521 95.941 92.0446 96.4763 92.1715 97.032L93.5046 102.858Z" fill="#5E93D1"/>
<path d="M92.1509 95.2473H102.201V113.232H92.1509V95.2473Z" fill="#5E93D1"/>
</g>
<path fill-rule="evenodd" clip-rule="evenodd" d="M97.5052 97.6712C97.6169 98.157 97.9033 98.5022 98.1453 98.4416C98.387 98.381 98.4928 97.938 98.3815 97.4522C98.2699 96.9661 97.9832 96.6212 97.7414 96.6818C97.4994 96.7423 97.3936 97.1853 97.5052 97.6712Z" fill="#020101"/>
<path fill-rule="evenodd" clip-rule="evenodd" d="M98.0653 100.186C98.1769 100.671 98.4633 101.017 98.7053 100.956C98.9473 100.895 99.0528 100.452 98.9415 99.9666C98.8299 99.4805 98.5435 99.1356 98.3015 99.1962C98.0595 99.2567 97.9537 99.6997 98.0653 100.186Z" fill="#020101"/>
<mask id="mask4" mask-type="alpha" maskUnits="userSpaceOnUse" x="113" y="91" width="54" height="40">
<path d="M139.068 91.314L142.276 91.1592C142.276 91.1592 141.447 93.2962 140.569 96.0442C138.834 101.477 134.717 102.697 131.131 102.691C127.781 102.686 126.642 99.5089 128.82 95.8263C130.221 93.4553 132.041 92.0048 132.455 91.6926C128.224 91.9786 125.59 92.5097 123.151 94.7977C118.506 99.1539 114.745 107.185 113.199 115.119L121.686 118.906L124.709 130.587L146.922 130.249C146.922 130.249 146.728 128.109 147.207 125.017C147.83 120.974 150.083 117.956 150.083 117.956L152.317 121.352L166.211 113.161C161.663 104.866 155.318 96.3132 151.087 93.5917C148.099 91.6683 145.362 91.1855 142.689 91.1592C141.473 91.1473 140.252 91.23 139.068 91.314Z" fill="white"/>
</mask>
<g mask="url(#mask4)">
<path d="M139.068 91.314L142.276 91.1592C142.276 91.1592 141.447 93.2962 140.569 96.0442C138.834 101.477 134.717 102.697 131.131 102.691C127.781 102.686 126.642 99.5089 128.82 95.8263C130.221 93.4553 132.041 92.0048 132.455 91.6926C128.224 91.9786 125.59 92.5097 123.151 94.7977C118.506 99.1539 114.745 107.185 113.199 115.119L121.686 118.906L124.709 130.587L146.922 130.249C146.922 130.249 146.728 128.109 147.207 125.017C147.83 120.974 150.083 117.956 150.083 117.956L152.317 121.352L166.211 113.161C161.663 104.866 155.318 96.3132 151.087 93.5917C148.099 91.6683 145.362 91.1855 142.689 91.1592C141.473 91.1473 140.252 91.23 139.068 91.314Z" fill="#5E93D1"/>
<path d="M113.31 90.2224H166.206V130.688H113.31V90.2224Z" fill="#FCBDA4"/>
</g>
<path opacity="0.202962" d="M124.609 130.791C123.761 120.015 118.153 117.472 122.384 105.387" stroke="black" stroke-width="3"/>
<path opacity="0.202055" d="M132.54 91.629C132.54 91.629 130.41 93.1344 128.819 95.8263C126.642 99.5089 127.78 102.686 131.13 102.691C134.717 102.697 138.833 101.477 140.568 96.0442C141.446 93.2962 142.275 91.1592 142.275 91.1592" stroke="black" stroke-width="3"/>
<path opacity="0.202962" d="M144.377 110.412L149.531 118.221" stroke="black" stroke-width="3"/>
<mask id="mask5" mask-type="alpha" maskUnits="userSpaceOnUse" x="107" y="259" width="63" height="17">
<path d="M161.951 260.837L155.778 260.703L155.095 267.578L154.424 275.503H169.908C167.845 268.926 161.889 267.893 161.889 267.893L161.951 260.837ZM122.716 262.217L123.351 267.76C123.351 267.76 111.535 270.858 107.094 275.465L128.874 275.503L128.295 259.627L122.716 262.217Z" fill="white"/>
</mask>
<g mask="url(#mask5)">
<path d="M161.951 260.837L155.778 260.703L155.095 267.578L154.424 275.503H169.908C167.845 268.926 161.889 267.893 161.889 267.893L161.951 260.837ZM122.716 262.217L123.351 267.76C123.351 267.76 111.535 270.858 107.094 275.465L128.874 275.503L128.295 259.627L122.716 262.217Z" fill="#0D0B6D"/>
<path d="M107.226 267.66H169.908V275.33H107.226V267.66Z" fill="#0D0B6D"/>
</g>
<mask id="mask6" mask-type="alpha" maskUnits="userSpaceOnUse" x="122" y="258" width="40" height="10">
<path d="M161.13 258.979L155.109 261.095L155.143 267.893L161.937 267.579L161.13 258.979ZM128.423 260.833L122.571 263.159L122.621 267.761L128.603 267.541L128.423 260.833Z" fill="white"/>
</mask>
<g mask="url(#mask6)">
<path d="M161.13 258.979L155.109 261.095L155.143 267.893L161.937 267.579L161.13 258.979ZM128.423 260.833L122.571 263.159L122.621 267.761L128.603 267.541L128.423 260.833Z" fill="#CF3E83"/>
<path d="M122.767 265.596H161.911V267.977H122.767V265.596Z" fill="#A47EF1"/>
</g>
<mask id="mask7" mask-type="alpha" maskUnits="userSpaceOnUse" x="119" y="130" width="46" height="136">
<path d="M163.278 262.245C163.001 253.647 161.219 199.332 159.387 167.018C158.118 144.621 148.619 132.289 146.837 130.159H124.204C124.163 130.445 121.116 152.009 120.559 197.132C120.058 237.542 120.574 259.629 120.639 262.227L120.639 262.228L119.916 262.227L119.911 265.706L131.631 265.725L131.636 262.246L131.232 262.245L131.232 262.245L137.183 191.531L138.966 170.367L152.497 262.227L152.497 262.228L151.911 262.227L152.116 265.706L164.25 265.725L164.045 262.247L163.278 262.245L163.278 262.245Z" fill="#FC8A5D"/>
</mask>
<g mask="url(#mask7)">
<path d="M163.278 262.245C163.001 253.647 161.219 199.332 159.387 167.018C158.118 144.621 148.619 132.289 146.837 130.159H124.204C124.163 130.445 121.116 152.009 120.559 197.132C120.058 237.542 120.574 259.629 120.639 262.227L120.639 262.228L119.916 262.227L119.911 265.706L131.631 265.725L131.636 262.246L131.232 262.245L131.232 262.245L137.183 191.531L138.966 170.367L152.497 262.227L152.497 262.228L151.911 262.227L152.116 265.706L164.25 265.725L164.045 262.247L163.278 262.245L163.278 262.245Z" fill="#FC8A5D"/>
<path d="M118.439 130.159H165.781V265.573H118.439V130.159Z" fill="#FC8A5D"/>
</g>
<path opacity="0.398065" fill-rule="evenodd" clip-rule="evenodd" d="M138.965 170.367L136.53 149.664L137.183 191.53L138.965 170.367Z" fill="#0A0A0F"/>
</svg>
