<svg width="180" height="276" viewBox="0 0 257 288" fill="none" xmlns="http://www.w3.org/2000/svg">
<path fill-rule="evenodd" clip-rule="evenodd" d="M97.2075 157.003H104.72V15.5908H97.2075V157.003Z" fill="#ECF6FF"/>
<path fill-rule="evenodd" clip-rule="evenodd" d="M172.543 160.66H174.974V12.2576H172.543V160.66Z" fill="#B6D4FF"/>
<path d="M145.124 12.3081V86.297" stroke="#DCEEFF" stroke-width="15"/>
<path d="M120.259 12.3081V86.297" stroke="#DCEEFF" stroke-width="15"/>
<path d="M172.543 86.459H102.391" stroke="#DCEEFF" stroke-width="15"/>
<path fill-rule="evenodd" clip-rule="evenodd" d="M93.1157 160.66H172.544V12.2579H93.1157V160.66ZM100.458 153.317H165.201V19.6005H100.458V153.317Z" fill="#DCEEFF"/>
<path fill-rule="evenodd" clip-rule="evenodd" d="M91.1206 153.33H174.539V149.977H91.1206V153.33Z" fill="#ECF6FF"/>
<path fill-rule="evenodd" clip-rule="evenodd" d="M174.539 153.33H176.598V149.977H174.539V153.33Z" fill="#B6D4FF"/>
<path fill-rule="evenodd" clip-rule="evenodd" d="M147.839 131.992C148.537 138.06 146.266 143.245 146.266 143.245C146.266 143.245 142.863 138.591 142.164 132.523C141.466 126.455 143.737 121.27 143.737 121.27C143.737 121.27 147.14 125.924 147.839 131.992Z" fill="#D2E9FC"/>
<path fill-rule="evenodd" clip-rule="evenodd" d="M128.725 136.737C128.507 142.841 125.485 147.628 125.485 147.628C125.485 147.628 122.817 142.517 123.035 136.413C123.253 130.309 126.274 125.522 126.274 125.522C126.274 125.522 128.943 130.633 128.725 136.737Z" fill="#D2E9FC"/>
<path fill-rule="evenodd" clip-rule="evenodd" d="M146.365 136.861C149.402 142.312 149.315 147.886 149.315 147.886C149.315 147.886 144.304 144.623 141.267 139.172C138.231 133.721 138.318 128.146 138.318 128.146C138.318 128.146 143.328 131.409 146.365 136.861Z" fill="#D2E9FC"/>
<path fill-rule="evenodd" clip-rule="evenodd" d="M150.64 132.643C149.863 138.703 146.399 143.321 146.399 143.321C146.399 143.321 144.195 138.112 144.972 132.052C145.749 125.991 149.212 121.374 149.212 121.374C149.212 121.374 151.416 126.583 150.64 132.643Z" fill="#D2E9FC"/>
<path fill-rule="evenodd" clip-rule="evenodd" d="M153.169 137.023C150.668 142.692 145.99 146.335 145.99 146.335C145.99 146.335 145.367 140.789 147.868 135.12C150.368 129.452 155.046 125.808 155.046 125.808C155.046 125.808 155.669 131.355 153.169 137.023Z" fill="#D2E9FC"/>
<path fill-rule="evenodd" clip-rule="evenodd" d="M78.02 5.3447H187.983V0.217617H78.02V5.3447Z" fill="#DCEEFF"/>
<path fill-rule="evenodd" clip-rule="evenodd" d="M187.063 5.3447H189.665V0.217617H187.063V5.3447Z" fill="#B6D4FF"/>
<path fill-rule="evenodd" clip-rule="evenodd" d="M187.03 36.927H188.645V33.6364H187.03V36.927Z" fill="#B6D4FF"/>
<path fill-rule="evenodd" clip-rule="evenodd" d="M80.8413 33.6363H185.842V5.34507H80.8413V33.6363Z" fill="#DCEEFF"/>
<path fill-rule="evenodd" clip-rule="evenodd" d="M79.1357 36.927H187.393V33.6364H79.1357V36.927Z" fill="#CCE3FF"/>
<path fill-rule="evenodd" clip-rule="evenodd" d="M80.8413 9.64693H185.842V5.34477H80.8413V9.64693Z" fill="#B6D4FF"/>
<path fill-rule="evenodd" clip-rule="evenodd" d="M139.621 138.668H153.974L152.459 149.977H141.136L139.621 138.668Z" fill="#B6D4FF"/>
<path fill-rule="evenodd" clip-rule="evenodd" d="M126.783 138.341C129.291 143.692 128.804 149.147 128.804 149.147C128.804 149.147 124.249 145.926 121.741 140.575C119.233 135.224 119.72 129.769 119.72 129.769C119.72 129.769 124.274 132.99 126.783 138.341Z" fill="#D2E9FC"/>
<path fill-rule="evenodd" clip-rule="evenodd" d="M130.567 140.956C128.351 146.436 123.976 149.906 123.976 149.906C123.976 149.906 123.193 144.49 125.409 139.01C127.625 133.53 132 130.059 132 130.059C132 130.059 132.783 135.475 130.567 140.956Z" fill="#D2E9FC"/>
<path fill-rule="evenodd" clip-rule="evenodd" d="M120.729 141.246H131.81L130.64 149.977H121.899L120.729 141.246Z" fill="#B6D4FF"/>
<path fill-rule="evenodd" clip-rule="evenodd" d="M93.298 236.765H75.7944V201.46C75.7944 199.961 77.0101 198.746 78.5095 198.746H90.5829C92.0824 198.746 93.298 199.961 93.298 201.46V236.765Z" fill="#CCE3FF"/>
<path fill-rule="evenodd" clip-rule="evenodd" d="M116.117 232.197C116.117 233.933 115.496 235.526 114.463 236.764H103.487C102.454 235.526 101.833 233.933 101.833 232.197C101.833 228.252 105.031 225.054 108.976 225.054C112.919 225.054 116.117 228.252 116.117 232.197Z" fill="#DCEEFF"/>
<path fill-rule="evenodd" clip-rule="evenodd" d="M106.508 227.132H111.442V222.925H106.508V227.132Z" fill="#DCEEFF"/>
<path fill-rule="evenodd" clip-rule="evenodd" d="M105.209 222.925H112.74V220.744H105.209V222.925Z" fill="#DCEEFF"/>
<path fill-rule="evenodd" clip-rule="evenodd" d="M106.064 236.765H95.5239L100.794 228.523L106.064 236.765Z" fill="#B6D4FF"/>
<path fill-rule="evenodd" clip-rule="evenodd" d="M75.7944 232.138H93.298V211.46H75.7944V232.138Z" fill="#B6D4FF"/>
<path fill-rule="evenodd" clip-rule="evenodd" d="M78.3394 235.365H84.3448V233.962H78.3394V235.365Z" fill="#B6D4FF"/>
<path fill-rule="evenodd" clip-rule="evenodd" d="M75.7944 202.974H93.298V202.501H75.7944V202.974Z" fill="#B6D4FF"/>
<path d="M130.548 275.641V287.731" stroke="#CCE3FF" stroke-width="11"/>
<path d="M111.383 275.641V287.731" stroke="#CCE3FF" stroke-width="11"/>
<path d="M27.8652 275.641V287.731" stroke="#CCE3FF" stroke-width="11"/>
<path d="M8.69971 275.641V287.731" stroke="#CCE3FF" stroke-width="11"/>
<path fill-rule="evenodd" clip-rule="evenodd" d="M0.103516 275.641H102.942V236.765H0.103516V275.641Z" fill="#DCEEFF"/>
<path fill-rule="evenodd" clip-rule="evenodd" d="M6.0249 271.308H48.9264V241.079H6.0249V271.308Z" fill="#CCE3FF"/>
<path fill-rule="evenodd" clip-rule="evenodd" d="M54.1196 271.308H97.0214V241.079H54.1196V271.308Z" fill="#CCE3FF"/>
<path fill-rule="evenodd" clip-rule="evenodd" d="M102.943 275.641H138.988V236.765H102.943V275.641Z" fill="#B6D4FF"/>
<path fill-rule="evenodd" clip-rule="evenodd" d="M25.5029 227.269V227.269C25.5029 229.017 26.9201 230.434 28.6682 230.434H57.1456V224.104H28.6682C26.9201 224.104 25.5029 225.521 25.5029 227.269Z" fill="#CCE3FF"/>
<path fill-rule="evenodd" clip-rule="evenodd" d="M44.6562 227.269V227.269C44.6562 228.281 45.4766 229.102 46.4884 229.102H57.069C57.111 229.102 57.1452 229.068 57.1452 229.026V225.513C57.1452 225.471 57.111 225.437 57.069 225.437H46.4884C45.4766 225.437 44.6562 226.257 44.6562 227.269Z" fill="#DCEEFF"/>
<path fill-rule="evenodd" clip-rule="evenodd" d="M21.5283 230.434V236.765H52.6111C54.3592 236.765 55.7764 235.348 55.7764 233.6C55.7764 231.852 54.3592 230.434 52.6111 230.434H21.5283Z" fill="#CCE3FF"/>
<path fill-rule="evenodd" clip-rule="evenodd" d="M21.5283 231.785V235.415H34.3084C35.3109 235.415 36.1234 234.602 36.1234 233.6C36.1234 232.597 35.3109 231.785 34.3084 231.785H21.5283Z" fill="#DCEEFF"/>
<path fill-rule="evenodd" clip-rule="evenodd" d="M36.2727 241.079C36.2727 243.388 34.4008 245.26 32.0916 245.26H22.8591C20.5501 245.26 18.6782 243.388 18.6782 241.079H36.2727Z" fill="#B6D4FF"/>
<path fill-rule="evenodd" clip-rule="evenodd" d="M84.3682 241.079C84.3682 243.388 82.496 245.26 80.1868 245.26H70.9546C68.6454 245.26 66.7734 243.388 66.7734 241.079H84.3682Z" fill="#B6D4FF"/>
<path fill-rule="evenodd" clip-rule="evenodd" d="M232.68 224.203L242.237 246.663H246.57L240.821 223.102L232.68 224.203Z" fill="#B6D4FF"/>
<path fill-rule="evenodd" clip-rule="evenodd" d="M183.859 224.203L193.415 246.663H197.749L192 223.102L183.859 224.203Z" fill="#B6D4FF"/>
<path fill-rule="evenodd" clip-rule="evenodd" d="M110.937 246.663H115.27L124.827 224.203L116.686 223.102L110.937 246.663Z" fill="#B6D4FF"/>
<path fill-rule="evenodd" clip-rule="evenodd" d="M159.757 246.663H164.091L173.648 224.203L165.507 223.102L159.757 246.663Z" fill="#B6D4FF"/>
<path fill-rule="evenodd" clip-rule="evenodd" d="M116.266 171.641V226.023L172.784 226.144L182.078 172.348L116.266 171.641ZM120.57 175.992L176.976 176.598L169.16 221.832L120.57 221.728V175.992Z" fill="#B6D4FF"/>
<path fill-rule="evenodd" clip-rule="evenodd" d="M190.432 138.213L175.24 226.144H241.515L256.707 138.213H190.432Z" fill="#CCE3FF"/>
<path fill-rule="evenodd" clip-rule="evenodd" d="M172.61 138.213L157.417 226.144H222.889L238.081 138.213H172.61Z" fill="#DCEEFF"/>
<path fill-rule="evenodd" clip-rule="evenodd" d="M156.376 226.144H234.311C238.289 226.144 241.515 222.918 241.515 218.939V202.335C241.515 198.356 238.289 195.131 234.311 195.131H156.376C152.397 195.131 149.172 198.356 149.172 202.335V218.939C149.172 222.918 152.397 226.144 156.376 226.144Z" fill="#CCE3FF"/>
<path fill-rule="evenodd" clip-rule="evenodd" d="M115.973 226.144H184.997V195.131H115.973V226.144Z" fill="#DCEEFF"/>
<path fill-rule="evenodd" clip-rule="evenodd" d="M184.997 171.641V226.023L241.515 226.144L250.81 172.348L184.997 171.641ZM189.302 175.992L245.707 176.598L237.892 221.832L189.302 221.728V175.992Z" fill="#B6D4FF"/>
<path d="M129.196 162.859L124.636 213.273" stroke="#19141E" stroke-width="4" stroke-linecap="round"/>
<path d="M124.635 217.826L126.532 275.781" stroke="#19141E" stroke-width="4" stroke-linecap="round"/>
<path d="M147.321 162.491L147.572 212.778" stroke="#19141E" stroke-width="4" stroke-linecap="round"/>
<path d="M147.572 214.929L154.338 277.411" stroke="#19141E" stroke-width="4" stroke-linecap="round"/>
<mask id="mask0" mask-type="alpha" maskUnits="userSpaceOnUse" x="110" y="157" width="50" height="125">
<path d="M146.346 207.568C146.334 207.568 146.323 207.568 146.311 207.568C143.636 207.568 141.467 210.348 141.467 213.777C141.467 217.207 143.636 219.986 146.311 219.987L148.975 219.987V219.984C151.589 219.895 153.687 217.15 153.687 213.777C153.687 210.404 151.589 207.66 148.975 207.57V207.568H148.877C148.866 207.568 148.855 207.568 148.843 207.568C148.832 207.568 148.82 207.568 148.809 207.568H146.346ZM123.663 207.568C123.652 207.568 123.64 207.568 123.629 207.568C120.954 207.568 118.785 210.348 118.785 213.777C118.785 217.207 120.954 219.987 123.629 219.987L126.293 219.987V219.984C128.907 219.894 131.005 217.15 131.005 213.777C131.005 210.405 128.907 207.66 126.293 207.57V207.568H126.195C126.183 207.568 126.172 207.568 126.161 207.568C126.149 207.568 126.138 207.568 126.126 207.568H123.663ZM146.074 164.3C148.026 164.3 149.623 162.698 149.623 160.74C149.623 158.783 148.026 157.181 146.074 157.181H130.081C128.129 157.181 126.532 158.783 126.532 160.74C126.532 162.698 128.129 164.3 130.081 164.3H146.074ZM139.413 281.945H159.499L156.325 273.795L139.413 281.945ZM110.362 281.945H130.448L127.275 273.795L110.362 281.945Z" fill="white"/>
</mask>
<g mask="url(#mask0)">
<path d="M146.346 207.568C146.334 207.568 146.323 207.568 146.311 207.568C143.636 207.568 141.467 210.348 141.467 213.777C141.467 217.207 143.636 219.986 146.311 219.987L148.975 219.987V219.984C151.589 219.895 153.687 217.15 153.687 213.777C153.687 210.404 151.589 207.66 148.975 207.57V207.568H148.877C148.866 207.568 148.855 207.568 148.843 207.568C148.832 207.568 148.82 207.568 148.809 207.568H146.346ZM123.663 207.568C123.652 207.568 123.64 207.568 123.629 207.568C120.954 207.568 118.785 210.348 118.785 213.777C118.785 217.207 120.954 219.987 123.629 219.987L126.293 219.987V219.984C128.907 219.894 131.005 217.15 131.005 213.777C131.005 210.405 128.907 207.66 126.293 207.57V207.568H126.195C126.183 207.568 126.172 207.568 126.161 207.568C126.149 207.568 126.138 207.568 126.126 207.568H123.663ZM146.074 164.3C148.026 164.3 149.623 162.698 149.623 160.74C149.623 158.783 148.026 157.181 146.074 157.181H130.081C128.129 157.181 126.532 158.783 126.532 160.74C126.532 162.698 128.129 164.3 130.081 164.3H146.074ZM139.413 281.945H159.499L156.325 273.795L139.413 281.945ZM110.362 281.945H130.448L127.275 273.795L110.362 281.945Z" fill="#6CA1FF"/>
<path d="M110.378 156.927H159.499V285.554H110.378V156.927Z" fill="#E576C6"/>
</g>
<path opacity="0.403041" fill-rule="evenodd" clip-rule="evenodd" d="M126.361 219.948C128.975 219.858 131.073 217.114 131.073 213.741C131.073 210.368 128.975 207.624 126.361 207.534V207.532H126.263C126.251 207.532 126.24 207.532 126.228 207.532C126.217 207.532 126.206 207.532 126.194 207.532H123.731C123.72 207.532 123.708 207.532 123.697 207.532C121.022 207.532 118.853 210.312 118.853 213.741C118.853 217.171 121.022 219.95 123.697 219.95L126.361 219.951V219.948ZM129.405 213.741C129.405 215.749 128.321 217.376 126.983 217.376C125.645 217.376 124.561 215.749 124.561 213.741C124.561 211.733 125.645 210.106 126.983 210.106C128.321 210.106 129.405 211.733 129.405 213.741ZM149.001 219.973C151.615 219.884 153.713 217.139 153.713 213.766C153.713 210.394 151.615 207.649 149.001 207.559V207.557H148.903C148.892 207.557 148.88 207.557 148.869 207.557C148.857 207.557 148.846 207.557 148.835 207.557H146.371C146.36 207.557 146.349 207.557 146.337 207.557C143.662 207.557 141.493 210.337 141.493 213.766C141.493 217.196 143.662 219.975 146.337 219.976L149.001 219.976V219.973ZM152.046 213.766C152.046 215.774 150.961 217.401 149.624 217.401C148.286 217.401 147.202 215.774 147.202 213.766C147.202 211.759 148.286 210.131 149.624 210.131C150.961 210.131 152.046 211.759 152.046 213.766Z" fill="black"/>
<path opacity="0.602888" fill-rule="evenodd" clip-rule="evenodd" d="M152.04 213.79C152.04 215.798 150.956 217.425 149.618 217.425C148.28 217.425 147.196 215.798 147.196 213.79C147.196 211.783 148.28 210.155 149.618 210.155C150.956 210.155 152.04 211.783 152.04 213.79Z" fill="black"/>
<path opacity="0.603864" fill-rule="evenodd" clip-rule="evenodd" d="M129.387 213.74C129.387 215.747 128.303 217.375 126.965 217.375C125.627 217.375 124.543 215.747 124.543 213.74C124.543 211.732 125.627 210.105 126.965 210.105C128.303 210.105 129.387 211.732 129.387 213.74Z" fill="black"/>
<path opacity="0.39588" fill-rule="evenodd" clip-rule="evenodd" d="M139.413 282H159.499L156.325 273.85L139.413 282Z" fill="black"/>
<path opacity="0.39588" fill-rule="evenodd" clip-rule="evenodd" d="M110.362 282H130.448L127.274 273.85L110.362 282Z" fill="black"/>
<path d="M170.418 203.128L175.754 197.342L168.018 187.399L158.731 195.457L162.08 202.531" stroke="#19141E" stroke-width="6"/>
<path d="M112.472 202.651L117.255 196.4L108.64 187.209L100.13 196.083L104.114 202.821" stroke="#19141E" stroke-width="6"/>
<path d="M108.545 160.926L112.38 132.811" stroke="#19141E" stroke-width="6" stroke-linecap="round"/>
<path d="M169.791 160.07L165.748 131.984" stroke="#19141E" stroke-width="6" stroke-linecap="round"/>
<path fill-rule="evenodd" clip-rule="evenodd" d="M124.607 144.396H135.524C137.151 144.396 138.47 143.078 138.47 141.451V130.533C138.47 128.907 137.151 127.588 135.524 127.588H124.607C122.98 127.588 121.662 128.907 121.662 130.533V141.451C121.662 143.078 122.98 144.396 124.607 144.396Z" fill="#19141E"/>
<path fill-rule="evenodd" clip-rule="evenodd" d="M127.392 144.396H135.524C137.151 144.396 138.47 143.078 138.47 141.451V130.533C138.47 128.907 137.151 127.588 135.524 127.588H127.392C125.766 127.588 124.447 128.907 124.447 130.533V141.451C124.447 143.078 125.766 144.396 127.392 144.396Z" fill="#405FD3"/>
<mask id="mask1" mask-type="alpha" maskUnits="userSpaceOnUse" x="97" y="109" width="85" height="85">
<path d="M165.302 140.966C165.379 140.968 165.456 140.969 165.533 140.969C170.607 140.969 174.721 136.855 174.721 131.781C174.721 126.706 170.607 122.592 165.533 122.592C164.449 122.592 163.409 122.78 162.443 123.124C157.915 114.977 149.222 109.464 139.24 109.464C129.719 109.464 121.369 114.48 116.689 122.014C115.761 121.699 114.766 121.528 113.732 121.528C108.657 121.528 104.543 125.642 104.543 130.717C104.543 135.543 108.264 139.5 112.994 139.876C114.873 152.686 125.908 162.52 139.24 162.52C152.191 162.52 162.974 153.24 165.302 140.966ZM181.307 166.339C181.586 162.605 178.784 159.352 175.05 159.073L165.669 158.374C161.935 158.095 158.682 160.896 158.403 164.63L156.807 186.015C156.529 189.749 159.33 193.002 163.064 193.28L172.446 193.981C176.18 194.259 179.433 191.458 179.711 187.724L181.307 166.339ZM120.123 164.658C120.104 160.913 117.052 157.894 113.307 157.914L103.9 157.964C100.156 157.984 97.1362 161.036 97.1562 164.78L97.2704 186.223C97.2902 189.968 100.342 192.987 104.086 192.967L113.494 192.917C117.238 192.897 120.258 189.846 120.238 186.101L120.123 164.658Z" fill="white"/>
</mask>
<g mask="url(#mask1)">
<path d="M165.302 140.966C165.379 140.968 165.456 140.969 165.533 140.969C170.607 140.969 174.721 136.855 174.721 131.781C174.721 126.706 170.607 122.592 165.533 122.592C164.449 122.592 163.409 122.78 162.443 123.124C157.915 114.977 149.222 109.464 139.24 109.464C129.719 109.464 121.369 114.48 116.689 122.014C115.761 121.699 114.766 121.528 113.732 121.528C108.657 121.528 104.543 125.642 104.543 130.717C104.543 135.543 108.264 139.5 112.994 139.876C114.873 152.686 125.908 162.52 139.24 162.52C152.191 162.52 162.974 153.24 165.302 140.966ZM181.307 166.339C181.586 162.605 178.784 159.352 175.05 159.073L165.669 158.374C161.935 158.095 158.682 160.896 158.403 164.63L156.807 186.015C156.529 189.749 159.33 193.002 163.064 193.28L172.446 193.981C176.18 194.259 179.433 191.458 179.711 187.724L181.307 166.339ZM120.123 164.658C120.104 160.913 117.052 157.894 113.307 157.914L103.9 157.964C100.156 157.984 97.1362 161.036 97.1562 164.78L97.2704 186.223C97.2902 189.968 100.342 192.987 104.086 192.967L113.494 192.917C117.238 192.897 120.258 189.846 120.238 186.101L120.123 164.658Z" fill="#6CA1FF"/>
<path d="M97.2631 111.373H181.326V193.917H97.2631V111.373Z" fill="#E576C6"/>
</g>
<path fill-rule="evenodd" clip-rule="evenodd" d="M149.37 111.49H129.11V104.79H149.37V111.49Z" fill="#19141E"/>
<path fill-rule="evenodd" clip-rule="evenodd" d="M127.392 144.396C125.766 144.396 124.447 143.078 124.447 141.451V130.533C124.447 128.907 125.766 127.588 127.392 127.588H124.607C122.98 127.588 121.662 128.907 121.662 130.533V141.451C121.662 143.078 122.98 144.396 124.607 144.396H127.392Z" fill="#19141E"/>
<path opacity="0.401762" fill-rule="evenodd" clip-rule="evenodd" d="M177.275 165.915L175.591 187.306L177.275 165.915ZM173.1 165.558L171.416 186.949L173.1 165.558Z" stroke="black" stroke-width="9" stroke-linecap="round" stroke-linejoin="round"/>
<path opacity="0.397763" fill-rule="evenodd" clip-rule="evenodd" d="M127.381 144.386H135.513C137.14 144.386 138.459 143.067 138.459 141.441V130.523C138.459 128.897 137.14 127.578 135.513 127.578H127.381C125.755 127.578 124.436 128.897 124.436 130.523V141.441C124.436 143.067 125.755 144.386 127.381 144.386ZM134.122 135.137C132.944 135.137 131.988 134.182 131.988 133.003C131.988 131.825 132.944 130.87 134.122 130.87C135.301 130.87 136.256 131.825 136.256 133.003C136.256 134.182 135.301 135.137 134.122 135.137ZM128.058 135.137C126.88 135.137 125.924 134.182 125.924 133.003C125.924 131.825 126.88 130.87 128.058 130.87C129.237 130.87 130.192 131.825 130.192 133.003C130.192 134.182 129.237 135.137 128.058 135.137ZM134.122 141.305C132.944 141.305 131.988 140.349 131.988 139.171C131.988 137.992 132.944 137.037 134.122 137.037C135.301 137.037 136.256 137.992 136.256 139.171C136.256 140.349 135.301 141.305 134.122 141.305Z" fill="black"/>
<path opacity="0.404204" fill-rule="evenodd" clip-rule="evenodd" d="M174.996 131.703C174.996 136.777 170.882 140.891 165.808 140.891C160.733 140.891 156.619 136.777 156.619 131.703C156.619 126.628 160.733 122.514 165.808 122.514C170.882 122.514 174.996 126.628 174.996 131.703Z" fill="black"/>
<path opacity="0.398763" fill-rule="evenodd" clip-rule="evenodd" d="M119.937 164.706L120.051 186.15C120.071 189.894 117.052 192.946 113.307 192.966L103.9 193.016C100.156 193.036 97.1037 190.016 97.084 186.272L96.9698 164.828C96.9498 161.084 99.9692 158.032 103.714 158.012L113.121 157.962C116.865 157.942 119.917 160.962 119.937 164.706Z" fill="black"/>
<path opacity="0.397856" fill-rule="evenodd" clip-rule="evenodd" d="M116.76 122.114C115.832 121.799 114.837 121.628 113.802 121.628C108.727 121.628 104.613 125.742 104.613 130.817C104.613 135.643 108.335 139.6 113.065 139.976C112.879 138.708 112.783 137.412 112.783 136.092C112.783 130.963 114.239 126.173 116.76 122.114Z" fill="black"/>
<path opacity="0.598121" fill-rule="evenodd" clip-rule="evenodd" d="M134.123 141.303C132.944 141.303 131.989 140.348 131.989 139.169C131.989 137.99 132.944 137.035 134.123 137.035C135.301 137.035 136.256 137.99 136.256 139.169C136.256 140.348 135.301 141.303 134.123 141.303Z" fill="black"/>
<path fill-rule="evenodd" clip-rule="evenodd" d="M126.924 91.4483H123.543C122.199 91.4483 121.099 90.3483 121.099 89.0038C121.099 87.6596 122.199 86.5594 123.543 86.5594H126.924C128.268 86.5594 129.368 87.6596 129.368 89.0038C129.368 90.3483 128.268 91.4483 126.924 91.4483Z" fill="#19141E"/>
<path d="M140.141 96.0681C139.631 94.6868 137.695 93.8713 135.818 94.2467C133.94 94.6221 132.832 96.0463 133.342 97.4276L135.916 104.396C136.427 105.778 136.598 106.174 138.915 106.174C139.896 106.174 141.391 106.174 142.237 106.174C143.448 106.174 143.819 105.391 142.716 103.037L140.141 96.0681Z" fill="#19141E"/>
<mask id="mask2" mask-type="alpha" maskUnits="userSpaceOnUse" x="125" y="67" width="23" height="36">
<path d="M137.245 102.648C143.041 102.648 147.782 97.9058 147.782 92.1105V86.4231C147.782 80.6278 143.041 75.8861 137.245 75.8861H136.232C130.437 75.8861 125.695 80.6278 125.695 86.4231V92.1105C125.695 97.9058 130.437 102.648 136.232 102.648H137.245ZM130.603 69.9455C130.603 68.4934 129.426 67.3163 127.974 67.3163C126.522 67.3163 125.344 68.4934 125.344 69.9455C125.344 71.3976 126.522 72.575 127.974 72.575C129.426 72.575 130.603 71.3976 130.603 69.9455Z" fill="white"/>
</mask>
<g mask="url(#mask2)">
<path d="M137.245 102.648C143.041 102.648 147.782 97.9058 147.782 92.1105V86.4231C147.782 80.6278 143.041 75.8861 137.245 75.8861H136.232C130.437 75.8861 125.695 80.6278 125.695 86.4231V92.1105C125.695 97.9058 130.437 102.648 136.232 102.648H137.245ZM130.603 69.9455C130.603 68.4934 129.426 67.3163 127.974 67.3163C126.522 67.3163 125.344 68.4934 125.344 69.9455C125.344 71.3976 126.522 72.575 127.974 72.575C129.426 72.575 130.603 71.3976 130.603 69.9455Z" fill="#6CA1FF"/>
<path d="M125.368 66.5563H147.903V103.017H125.368V66.5563Z" fill="#E576C6"/>
</g>
<path d="M129.031 72.3541C130.755 73.8553 131.736 75.5153 132.032 77.7764C132.087 78.1924 132.468 78.4855 132.884 78.431C133.3 78.3766 133.593 77.9952 133.538 77.5792C133.198 74.9753 132.08 73.0463 130.195 71.3546C129.916 71.793 129.511 72.1432 129.031 72.3541Z" fill="#19141E"/>
<path fill-rule="evenodd" clip-rule="evenodd" d="M133.289 87.1621C133.156 87.9131 133.657 88.6292 134.408 88.7619C135.159 88.8945 135.875 88.3935 136.008 87.6425C136.141 86.8917 135.64 86.1754 134.889 86.0427C134.138 85.91 133.421 86.4111 133.289 87.1621Z" fill="#19141E"/>
<path fill-rule="evenodd" clip-rule="evenodd" d="M126.121 87.1915C125.988 87.9425 126.49 88.6586 127.24 88.7913C127.991 88.924 128.707 88.4229 128.84 87.6719C128.973 86.9211 128.472 86.2048 127.721 86.0721C126.97 85.9395 126.254 86.4408 126.121 87.1915Z" fill="#19141E"/>
<g opacity="0.403971">
<path opacity="0.403971" fill-rule="evenodd" clip-rule="evenodd" d="M131.668 85.6713L128.184 91.1997L131.935 91.2903L131.668 85.6713Z" fill="black"/>
</g>
<path fill-rule="evenodd" clip-rule="evenodd" d="M149.257 90.9252H145.978V86.0364H149.257C150.602 86.0364 151.702 87.1365 151.702 88.4808C151.702 89.8253 150.602 90.9252 149.257 90.9252Z" fill="#19141E"/>
<path d="M132.377 93.8694C134.036 94.1505 135.587 93.203 135.755 92.2099" stroke="#19141E" stroke-width="4"/>
</svg>
