<svg width="139" height="323" viewBox="0 0 139 323" fill="none" xmlns="http://www.w3.org/2000/svg">
<path fill-rule="evenodd" clip-rule="evenodd" d="M32.1436 279.547H40.3829V252.78H32.1436V279.547Z" fill="#DCEEFF"/>
<path fill-rule="evenodd" clip-rule="evenodd" d="M100.774 279.547H109.013V252.78H100.774V279.547Z" fill="#DCEEFF"/>
<path fill-rule="evenodd" clip-rule="evenodd" d="M61.3677 279.547H69.6067V252.78H61.3677V279.547Z" fill="#B6D4FF"/>
<path fill-rule="evenodd" clip-rule="evenodd" d="M129.998 279.547H138.237V252.78H129.998V279.547Z" fill="#B6D4FF"/>
<path fill-rule="evenodd" clip-rule="evenodd" d="M61.3193 257.529H138.189V30.1488H61.3193V257.529Z" fill="#B6D4FF"/>
<path fill-rule="evenodd" clip-rule="evenodd" d="M32.2988 257.529H109.169V30.1488H32.2988V257.529Z" fill="#DCEEFF"/>
<path fill-rule="evenodd" clip-rule="evenodd" d="M84.611 14.6872C84.611 21.2205 81.1595 26.9527 75.9825 30.1489H56.9774C51.8001 26.9527 48.3486 21.2205 48.3486 14.6872C48.3486 11.6469 49.0967 8.78456 50.4152 6.2709H82.5448C83.8629 8.78456 84.611 11.6469 84.611 14.6872Z" fill="#DCEEFF"/>
<path fill-rule="evenodd" clip-rule="evenodd" d="M89.4312 30.1449H97.2672V0.211487H89.4312V30.1449Z" fill="#DCEEFF"/>
<path fill-rule="evenodd" clip-rule="evenodd" d="M81.5947 30.1449H89.4307V0.211487H81.5947V30.1449Z" fill="#CCE3FF"/>
<path fill-rule="evenodd" clip-rule="evenodd" d="M97.2671 30.1449H105.103V0.211487H97.2671V30.1449Z" fill="#CCE3FF"/>
<path fill-rule="evenodd" clip-rule="evenodd" d="M126.153 30.1449H105.103V0.211487H126.153C127.033 0.211487 127.746 0.924128 127.746 1.80383V28.5526C127.746 29.4319 127.033 30.1449 126.153 30.1449Z" fill="#B6D4FF"/>
<path fill-rule="evenodd" clip-rule="evenodd" d="M112.009 12.1087H120.84V9.14484H112.009V12.1087Z" fill="#CCE3FF"/>
<path fill-rule="evenodd" clip-rule="evenodd" d="M39.1797 250.037H102.317V184.591H39.1797V250.037Z" fill="#CCE3FF"/>
<path fill-rule="evenodd" clip-rule="evenodd" d="M39.1797 250.037H60.9618V184.591H39.1797V250.037Z" fill="#B6D4FF"/>
<path fill-rule="evenodd" clip-rule="evenodd" d="M39.1797 176.469H102.317V111.024H39.1797V176.469Z" fill="#CCE3FF"/>
<path fill-rule="evenodd" clip-rule="evenodd" d="M39.1797 176.469H60.9618V111.024H39.1797V176.469Z" fill="#B6D4FF"/>
<path fill-rule="evenodd" clip-rule="evenodd" d="M39.1797 102.903H102.317V37.4577H39.1797V102.903Z" fill="#CCE3FF"/>
<path fill-rule="evenodd" clip-rule="evenodd" d="M39.1797 102.903H60.9618V37.4577H39.1797V102.903Z" fill="#B6D4FF"/>
<path fill-rule="evenodd" clip-rule="evenodd" d="M54.2969 250.036H60.5458V226.165H54.2969V250.036Z" fill="#DCEEFF"/>
<path fill-rule="evenodd" clip-rule="evenodd" d="M48.0488 250.036H54.2978V226.165H48.0488V250.036Z" fill="#CCE3FF"/>
<path fill-rule="evenodd" clip-rule="evenodd" d="M60.5459 250.036H66.7948V226.165H60.5459V250.036Z" fill="#CCE3FF"/>
<path fill-rule="evenodd" clip-rule="evenodd" d="M83.2586 250.036H66.7944V226.165H83.2586C84.1383 226.165 84.8512 226.878 84.8512 227.758V248.444C84.8512 249.323 84.1383 250.036 83.2586 250.036Z" fill="#B6D4FF"/>
<path fill-rule="evenodd" clip-rule="evenodd" d="M69.4707 232.006H82.1757V229.643H69.4707V232.006Z" fill="#CCE3FF"/>
<path fill-rule="evenodd" clip-rule="evenodd" d="M72.3018 235.653H79.3447V233.29H72.3018V235.653Z" fill="#CCE3FF"/>
<path fill-rule="evenodd" clip-rule="evenodd" d="M76.1698 92.7672C75.6854 96.8381 73.6235 100.428 70.6118 102.903H50.9151C47.9034 100.428 45.8412 96.8381 45.354 92.7672H76.1698Z" fill="#DCEEFF"/>
<path fill-rule="evenodd" clip-rule="evenodd" d="M76.1697 84.3062C75.253 91.9999 68.7041 97.969 60.7622 97.969C52.82 97.969 46.2715 91.9999 45.3545 84.3062H76.1697Z" fill="#DCEEFF"/>
<path fill-rule="evenodd" clip-rule="evenodd" d="M76.1698 75.8575C75.6854 79.9284 73.6235 83.518 70.6118 85.9929H50.9151C47.9034 83.518 45.8412 79.9284 45.354 75.8575H76.1698Z" fill="#DCEEFF"/>
<path fill-rule="evenodd" clip-rule="evenodd" d="M76.1697 67.3962C75.253 75.0903 68.7041 81.0594 60.7622 81.0594C52.82 81.0594 46.2715 75.0903 45.3545 67.3962H76.1697Z" fill="#DCEEFF"/>
<path fill-rule="evenodd" clip-rule="evenodd" d="M66.023 160.748C66.023 166.739 65.3842 172.219 64.3191 176.469H53.1578C52.0948 172.219 51.4536 166.739 51.4536 160.748" fill="#ECF6FF"/>
<path d="M65.4705 163.381C68.0013 163.88 69.648 166.337 69.1484 168.868C68.6484 171.398 66.1919 173.045 63.6611 172.545" stroke="#ECF6FF" stroke-width="8"/>
<path fill-rule="evenodd" clip-rule="evenodd" d="M88.3809 160.748C88.3809 166.739 87.7421 172.219 86.677 176.469H75.5157C74.4527 172.219 73.8115 166.739 73.8115 160.748" fill="#ECF6FF"/>
<path d="M85.409 163.381C87.9398 163.88 89.5865 166.337 89.0868 168.868C88.5869 171.398 86.1304 173.045 83.5996 172.545" stroke="#ECF6FF" stroke-width="8"/>
<mask id="mask0" mask-type="alpha" maskUnits="userSpaceOnUse" x="38" y="92" width="38" height="37">
<path d="M53.2653 128.733L53.5327 119.514C53.5327 119.514 42.3158 120.406 39.9162 119.161C39.9162 119.161 36.9838 104.071 40.4813 95.7138L40.5521 95.3883L64.2228 92.6228L65.6954 106.025C66.4927 103.676 72.9274 101.176 74.6477 104.54C78.3755 111.828 65.0468 116.736 65.0468 116.736L66.4 128.844" fill="white"/>
</mask>
<g mask="url(#mask0)">
<path d="M53.2653 128.733L53.5327 119.514C53.5327 119.514 42.3158 120.406 39.9162 119.161C39.9162 119.161 36.9838 104.071 40.4813 95.7138L40.5521 95.3883L64.2228 92.6228L65.6954 106.025C66.4927 103.676 72.9274 101.176 74.6477 104.54C78.3755 111.828 65.0468 116.736 65.0468 116.736L66.4 128.844" fill="#5E93D1"/>
</g>
<path opacity="0.400274" fill-rule="evenodd" clip-rule="evenodd" d="M53.5332 119.514L61.0967 117.894L53.5695 122.973L53.5332 119.514Z" fill="black"/>
<path fill-rule="evenodd" clip-rule="evenodd" d="M47.2938 104.449L44.6802 110.83L47.8125 110.87L47.2938 104.449Z" fill="#2437A8"/>
<path fill-rule="evenodd" clip-rule="evenodd" d="M50.2735 106.262C50.1177 107.122 50.6893 107.944 51.5499 108.099C52.4102 108.255 53.234 107.684 53.3894 106.825C53.5452 105.966 52.9739 105.143 52.1133 104.987C51.2527 104.832 50.4292 105.403 50.2735 106.262Z" fill="#0D0B6D"/>
<path fill-rule="evenodd" clip-rule="evenodd" d="M42.0533 106.262C41.8975 107.122 42.4691 107.944 43.3297 108.099C44.19 108.255 45.0138 107.684 45.1692 106.825C45.325 105.966 44.7537 105.143 43.8931 104.987C43.0325 104.832 42.209 105.403 42.0533 106.262Z" fill="#0D0B6D"/>
<path fill-rule="evenodd" clip-rule="evenodd" d="M50.5439 112.677C50.5439 112.677 49.4492 114.45 47.2807 114.3Z" fill="white"/>
<path d="M50.5439 112.677C50.5439 112.677 49.4492 114.45 47.2807 114.3" stroke="#252535" stroke-width="4"/>
<path fill-rule="evenodd" clip-rule="evenodd" d="M65.5526 106.167C67.3201 104.337 69.2438 103.562 70.4106 103.24L70.188 98.6208L59.0689 96.6843C59.8352 101.837 62.8114 104.649 65.5526 106.167Z" fill="#2D3652"/>
<path fill-rule="evenodd" clip-rule="evenodd" d="M39.8254 97.5156C40.8271 96.5638 47.3562 96.269 55.2047 96.8726C57.0302 97.013 58.7804 97.1899 60.3987 97.3949C65.7486 98.0659 69.685 99.0205 70.3257 99.86C71.0364 89.3705 64.6041 83.1234 56.1823 82.5422C50.6572 82.1604 45.6466 84.3138 42.6473 88.8005C41.1125 91.1 40.1026 94.0144 39.8254 97.5156Z" fill="#393954"/>
<mask id="mask1" mask-type="alpha" maskUnits="userSpaceOnUse" x="33" y="88" width="28" height="10">
<path d="M60.3984 88.5715H33.7292V97.7235H60.3984V88.5715Z" fill="white"/>
</mask>
<g mask="url(#mask1)">
<path fill-rule="evenodd" clip-rule="evenodd" d="M39.6987 97.7235H39.7015C39.7122 97.6505 39.7552 97.5803 39.8252 97.5157C40.8269 96.5639 47.356 96.2691 55.2045 96.8728C57.0303 97.0132 58.7802 97.1901 60.3984 97.395C58.0964 95.2106 53.8854 91.7572 48.9178 90.2073C46.7934 89.5447 44.6393 89.0618 42.6471 88.8007C37.8113 88.1605 33.9315 88.8175 33.7375 91.3248C33.4873 94.5873 38.8639 97.3192 39.6987 97.7235Z" fill="#161629"/>
</g>
<mask id="mask2" mask-type="alpha" maskUnits="userSpaceOnUse" x="6" y="279" width="115" height="44">
<path d="M30.7214 305.114L28.8299 311.207C28.8299 311.207 14.0598 305.15 6.46205 307.448L32.0646 322.269L38.73 305.537L30.7214 305.114ZM99.7672 286.831L108.049 294.42C108.049 294.42 106.819 299.469 106.3 304.232C105.55 311.126 106.011 317.349 106.011 317.349L120.37 292.306L102.644 279.155L99.7672 286.831Z" fill="white"/>
</mask>
<g mask="url(#mask2)">
<path d="M30.7214 305.114L28.8299 311.207C28.8299 311.207 14.0598 305.15 6.46205 307.448L32.0646 322.269L38.73 305.537L30.7214 305.114ZM99.7672 286.831L108.049 294.42C108.049 294.42 106.819 299.469 106.3 304.232C105.55 311.126 106.011 317.349 106.011 317.349L120.37 292.306L102.644 279.155L99.7672 286.831Z" fill="#0D0B6D"/>
<path d="M6.37507 283.93H124.994V322.434H6.37507V283.93Z" fill="#19141E"/>
</g>
<mask id="mask3" mask-type="alpha" maskUnits="userSpaceOnUse" x="28" y="279" width="85" height="35">
<path d="M38.3064 306.856L30.3887 306.144L28.8303 311.207L35.3835 313.938L38.3064 306.856ZM102.766 279.148L101.855 288.765L108.05 294.42L112.968 286.863L102.766 279.148Z" fill="white"/>
</mask>
<g mask="url(#mask3)">
<path d="M38.3064 306.856L30.3887 306.144L28.8303 311.207L35.3835 313.938L38.3064 306.856ZM102.766 279.148L101.855 288.765L108.05 294.42L112.968 286.863L102.766 279.148Z" fill="#CF3E83"/>
<path d="M22.7832 283.93H116.561V314.05H22.7832V283.93Z" fill="#CF3E83"/>
</g>
<mask id="mask4" mask-type="alpha" maskUnits="userSpaceOnUse" x="27" y="181" width="85" height="131">
<path d="M70.6201 215.826L81.136 181.628H54.1485L39.9431 181.628C39.9164 189.994 40.9016 203.772 46.117 219.461L29.5586 297.451C29.3527 298.431 29.7009 299.408 30.4075 300.041L27.8913 308.975L38.1754 311.969L40.6251 303.644L40.6892 303.665C42.1476 304.147 43.7174 303.338 44.1664 301.876L60.5262 248.669C62.3711 251.389 64.3815 254.103 66.5665 256.799C80.4013 273.865 89.0236 283.069 93.4582 287.497C95.0412 289.081 97.5039 289.158 99.1741 287.864L105.498 293.071L111.777 284.434L105.527 279.288C106.529 277.682 106.364 275.593 105.084 274.168C98.7119 267.058 80.7794 245.345 70.6201 215.826L70.6201 215.826Z" fill="#FF4900"/>
</mask>
<g mask="url(#mask4)">
<path d="M70.6201 215.826L81.136 181.628H54.1485L39.9431 181.628C39.9164 189.994 40.9016 203.772 46.117 219.461L29.5586 297.451C29.3527 298.431 29.7009 299.408 30.4075 300.041L27.8913 308.975L38.1754 311.969L40.6251 303.644L40.6892 303.665C42.1476 304.147 43.7174 303.338 44.1664 301.876L60.5262 248.669C62.3711 251.389 64.3815 254.103 66.5665 256.799C80.4013 273.865 89.0236 283.069 93.4582 287.497C95.0412 289.081 97.5039 289.158 99.1741 287.864L105.498 293.071L111.777 284.434L105.527 279.288C106.529 277.682 106.364 275.593 105.084 274.168C98.7119 267.058 80.7794 245.345 70.6201 215.826L70.6201 215.826Z" fill="#FF4900"/>
<path d="M25.0018 181.628H111.637V312.978H25.0018V181.628Z" fill="#FF4900"/>
</g>
<g opacity="0.0987491">
<path opacity="0.0987491" fill-rule="evenodd" clip-rule="evenodd" d="M40.6254 303.644L40.6895 303.665C42.1478 304.147 43.7177 303.338 44.1666 301.876L60.5265 248.668L70.6202 215.826L81.1362 181.628H54.1488L46.1174 219.461L29.5589 297.451C29.3529 298.431 29.7011 299.408 30.4078 300.041L27.8915 308.975L38.1757 311.969L40.6254 303.644Z" fill="white"/>
</g>
<mask id="mask5" mask-type="alpha" maskUnits="userSpaceOnUse" x="35" y="181" width="40" height="123">
<path d="M35.1087 301.576L39.4401 303.113L56.8203 242.853L67.5428 205.677L74.478 181.629H65.6873L64.1419 187.693L52.2329 234.403L35.1087 301.576Z" fill="white"/>
</mask>
<g mask="url(#mask5)">
<path d="M35.1087 301.576L39.4401 303.113L56.8203 242.853L67.5428 205.677L74.478 181.629H65.6873L64.1419 187.693L52.2329 234.403L35.1087 301.576Z" fill="#EFEFEF"/>
<path d="M35.2615 181.628H74.3872V303.041H35.2615V181.628Z" fill="#F6B852"/>
</g>
<mask id="mask6" mask-type="alpha" maskUnits="userSpaceOnUse" x="0" y="126" width="101" height="91">
<path d="M11.5818 147.203C15.0089 153.932 27.0391 176.021 35.6155 172.498C42.0368 169.86 49.724 147.989 49.724 147.989L37.2284 140.553L31.6135 155.582L20.1487 143.127C20.538 140.659 20.8498 137.433 20.0737 136.296C18.7525 134.36 12.0675 128.396 12.0675 128.396L10.8504 138.501L10.6378 137.649C10.638 137.602 10.6266 137.55 10.6025 137.495C10.6002 137.49 10.5978 137.484 10.5953 137.479L10.1032 135.507C10.3098 135.403 10.3943 135.254 10.305 135.048C10.2325 134.881 10.0744 134.698 9.85343 134.506L8.17321 127.773C8.17321 127.773 7.62183 128.019 6.81343 128.386C5.51317 128.118 0.804558 131.319 0.73311 131.368L0.732201 131.368C-0.226689 131.987 2.05377 142.222 3.90603 144.124C5.22379 145.476 9.3242 146.643 11.5818 147.203ZM88.1348 192.842L87.3694 194.295C87.3694 194.295 86.6766 195.482 85.9512 197.554C85.2261 199.626 85.5274 200.894 83.9586 204.149C82.1778 207.843 85.3631 206.32 86.5052 204.707C87.3967 203.448 87.2955 201.747 88.4512 200.985C88.8384 201.603 89.7234 202.486 90.2172 207.817C90.3056 208.773 89.8722 211.874 89.8722 211.874C89.8628 212.803 89.7436 214.741 90.8016 215.036C91.0636 215.11 91.4049 214.82 91.4049 214.82C91.4049 214.82 91.3024 216.033 92.3833 216.274C92.8084 216.369 93.6528 213.751 93.6528 213.751C93.6528 213.751 93.7813 215.08 94.5887 215.228C94.8169 215.27 97.5116 207.684 97.5116 207.684L97.3495 209.398L96.9918 211.152C96.9918 211.152 97.0207 212.097 97.7793 212.264C98.0805 212.33 98.6587 210.755 99.2005 208.902C100.043 206.018 100.026 203.851 99.7781 201.696C99.4788 199.092 99.612 198.217 98.4528 195.023C98.3142 194.641 98.1281 194.203 97.9203 193.752C98.5563 188.262 100.349 172.191 100.129 167.257C99.8628 161.273 93.5226 147.989 93.5226 147.989L80.6506 155.185L87.7453 168.112L88.1348 192.842ZM57.3398 133.315C64.7954 132.877 67.941 128.243 68.6583 126.99C63.9278 126.663 63.4334 126.711 57.1323 127.364C54.5767 127.629 52.7844 128.172 51.0486 128.648C50.6729 129.923 50.1388 133.735 57.3398 133.315Z" fill="white"/>
</mask>
<g mask="url(#mask6)">
<path d="M11.5818 147.203C15.0089 153.932 27.0391 176.021 35.6155 172.498C42.0368 169.86 49.724 147.989 49.724 147.989L37.2284 140.553L31.6135 155.582L20.1487 143.127C20.538 140.659 20.8498 137.433 20.0737 136.296C18.7525 134.36 12.0675 128.396 12.0675 128.396L10.8504 138.501L10.6378 137.649C10.638 137.602 10.6266 137.55 10.6025 137.495C10.6002 137.49 10.5978 137.484 10.5953 137.479L10.1032 135.507C10.3098 135.403 10.3943 135.254 10.305 135.048C10.2325 134.881 10.0744 134.698 9.85343 134.506L8.17321 127.773C8.17321 127.773 7.62183 128.019 6.81343 128.386C5.51317 128.118 0.804558 131.319 0.73311 131.368L0.732201 131.368C-0.226689 131.987 2.05377 142.222 3.90603 144.124C5.22379 145.476 9.3242 146.643 11.5818 147.203ZM88.1348 192.842L87.3694 194.295C87.3694 194.295 86.6766 195.482 85.9512 197.554C85.2261 199.626 85.5274 200.894 83.9586 204.149C82.1778 207.843 85.3631 206.32 86.5052 204.707C87.3967 203.448 87.2955 201.747 88.4512 200.985C88.8384 201.603 89.7234 202.486 90.2172 207.817C90.3056 208.773 89.8722 211.874 89.8722 211.874C89.8628 212.803 89.7436 214.741 90.8016 215.036C91.0636 215.11 91.4049 214.82 91.4049 214.82C91.4049 214.82 91.3024 216.033 92.3833 216.274C92.8084 216.369 93.6528 213.751 93.6528 213.751C93.6528 213.751 93.7813 215.08 94.5887 215.228C94.8169 215.27 97.5116 207.684 97.5116 207.684L97.3495 209.398L96.9918 211.152C96.9918 211.152 97.0207 212.097 97.7793 212.264C98.0805 212.33 98.6587 210.755 99.2005 208.902C100.043 206.018 100.026 203.851 99.7781 201.696C99.4788 199.092 99.612 198.217 98.4528 195.023C98.3142 194.641 98.1281 194.203 97.9203 193.752C98.5563 188.262 100.349 172.191 100.129 167.257C99.8628 161.273 93.5226 147.989 93.5226 147.989L80.6506 155.185L87.7453 168.112L88.1348 192.842ZM57.3398 133.315C64.7954 132.877 67.941 128.243 68.6583 126.99C63.9278 126.663 63.4334 126.711 57.1323 127.364C54.5767 127.629 52.7844 128.172 51.0486 128.648C50.6729 129.923 50.1388 133.735 57.3398 133.315Z" fill="#E576C6"/>
<path d="M0.470177 126.827H100.147V216.256H0.470177V126.827Z" fill="#ED4848"/>
</g>
<mask id="mask7" mask-type="alpha" maskUnits="userSpaceOnUse" x="30" y="126" width="65" height="56">
<path d="M36.1046 140.401L36.06 140.392L30.9818 152.067L38.2298 156.291L39.743 181.781H81.0392L81.7317 156.643L94.7891 146.879C94.7891 146.879 88.6314 134.531 78.0954 129.617C74.689 128.027 71.5651 127.277 68.6586 126.99C68.4203 126.966 68.6084 126.973 68.5794 127.085C68.563 127.149 68.5055 127.244 68.4388 127.352C68.372 127.46 68.372 127.425 68.0449 127.908C67.7178 128.39 67.2329 128.871 66.5017 129.617C65.8952 130.236 65.0574 130.842 64.2354 131.301C63.2996 131.824 62.3812 132.173 61.7918 132.421C61.26 132.645 60.8115 132.762 60.3781 132.865C59.1537 133.156 58.2005 133.246 56.2561 133.347C56.0201 133.36 54.6537 133.258 54.4134 133.211C54.0706 133.143 53.7636 133.081 53.376 132.975C52.9884 132.87 52.0252 132.42 51.3876 131.628C51.1171 131.293 50.8602 130.188 50.9393 129.374C51.0184 128.561 51.3733 128.559 51.049 128.648C45.3447 130.2 39.9538 133.402 36.8024 139.079C36.5483 139.536 36.3162 139.976 36.1046 140.401Z" fill="#FF6D32"/>
</mask>
<g mask="url(#mask7)">
<path d="M36.1046 140.401L36.06 140.392L30.9818 152.067L38.2298 156.291L39.743 181.781H81.0392L81.7317 156.643L94.7891 146.879C94.7891 146.879 88.6314 134.531 78.0954 129.617C74.689 128.027 71.5651 127.277 68.6586 126.99C68.4203 126.966 68.6084 126.973 68.5794 127.085C68.563 127.149 68.5055 127.244 68.4388 127.352C68.372 127.46 68.372 127.425 68.0449 127.908C67.7178 128.39 67.2329 128.871 66.5017 129.617C65.8952 130.236 65.0574 130.842 64.2354 131.301C63.2996 131.824 62.3812 132.173 61.7918 132.421C61.26 132.645 60.8115 132.762 60.3781 132.865C59.1537 133.156 58.2005 133.246 56.2561 133.347C56.0201 133.36 54.6537 133.258 54.4134 133.211C54.0706 133.143 53.7636 133.081 53.376 132.975C52.9884 132.87 52.0252 132.42 51.3876 131.628C51.1171 131.293 50.8602 130.188 50.9393 129.374C51.0184 128.561 51.3733 128.559 51.049 128.648C45.3447 130.2 39.9538 133.402 36.8024 139.079C36.5483 139.536 36.3162 139.976 36.1046 140.401Z" fill="#FF6D32"/>
<path d="M30.9018 126.828H94.8691V181.79H30.9018V126.828Z" fill="#FF6D32"/>
</g>
<path opacity="0.200521" d="M81.7319 156.642L78.4196 158.884L70.4575 149.639" stroke="black" stroke-width="5"/>
<mask id="mask8" mask-type="alpha" maskUnits="userSpaceOnUse" x="2" y="120" width="15" height="24">
<path d="M16.0317 120.653H2.28124V143.123H16.0317V120.653Z" fill="white"/>
</mask>
<g mask="url(#mask8)">
<path fill-rule="evenodd" clip-rule="evenodd" d="M6.11166 140.3L6.68847 143.123H16.0317L11.6245 120.652H2.28124C2.52343 121.887 3.09385 124.795 3.9925 129.377L5.82972 128.528L6.40194 128.37L6.85239 128.395L7.04765 128.528V129.074L5.05043 131.938L6.57824 132.602L8.92894 133.832L9.60813 134.301L9.87128 134.544L10.0862 134.736L10.2231 134.901L10.3054 135.048L10.3407 135.24L10.3054 135.324L10.2645 135.389L10.2051 135.448L9.43457 135.72L7.67693 135.24H5.9398L8.25847 135.72L9.78629 136.631L10.3054 137.119L10.5987 137.478V137.806L10.0862 138.036L6.85239 137.666L7.92316 138.247L8.63275 138.685L9.28321 139.02L9.78629 139.667V139.987L9.60813 140.174L9.15649 140.414H8.46779H7.08033L6.11166 140.3Z" fill="#5E93D1"/>
</g>
<mask id="mask9" mask-type="alpha" maskUnits="userSpaceOnUse" x="11" y="120" width="7" height="24">
<path d="M17.5791 120.653H11.6261V143.123H17.5791V120.653Z" fill="white"/>
</mask>
<g mask="url(#mask9)">
<path fill-rule="evenodd" clip-rule="evenodd" d="M16.033 143.123H17.5791L13.1719 120.652H11.6261L16.033 143.123Z" fill="#020101"/>
</g>
<path fill-rule="evenodd" clip-rule="evenodd" d="M10.0166 123.262C10.1458 123.918 10.5287 124.396 10.8718 124.329C11.2146 124.262 11.3882 123.676 11.259 123.02C11.1298 122.363 10.747 121.886 10.4038 121.952C10.0607 122.019 9.88746 122.605 10.0166 123.262Z" fill="#020101"/>
</svg>
