<svg width="170" height="276" viewBox="0 0 306 267" fill="none" xmlns="http://www.w3.org/2000/svg">
<path fill-rule="evenodd" clip-rule="evenodd" d="M107.715 218.017H286.282C290.078 218.017 293.323 215.284 293.97 211.544L305.822 142.943C306.646 138.174 302.974 133.813 298.134 133.813H119.567C115.771 133.813 112.526 136.545 111.879 140.286L100.027 208.887C99.2027 213.656 102.875 218.017 107.715 218.017Z" fill="#B6D4FF"/>
<path fill-rule="evenodd" clip-rule="evenodd" d="M90.6477 218.017H268.445C272.241 218.017 275.486 215.284 276.133 211.544L287.985 142.943C288.809 138.174 285.137 133.813 280.297 133.813H102.5C98.7038 133.813 95.4586 136.545 94.8121 140.286L82.9596 208.887C82.136 213.656 85.8077 218.017 90.6477 218.017Z" fill="#DCEEFF"/>
<path fill-rule="evenodd" clip-rule="evenodd" d="M211.321 218.017H285.952C289.763 218.017 292.852 214.928 292.852 211.118V195.218C292.852 191.407 289.763 188.319 285.952 188.319H211.321C207.511 188.319 204.422 191.407 204.422 195.218V211.118C204.422 214.928 207.511 218.017 211.321 218.017Z" fill="#B6D4FF"/>
<path d="M277.084 218.017V233.773" stroke="#CCE3FF" stroke-width="10"/>
<path d="M221.714 218.017V233.773" stroke="#CCE3FF" stroke-width="10"/>
<path d="M73.4414 218.017V233.773" stroke="#CCE3FF" stroke-width="10"/>
<path d="M18.0703 218.017V233.773" stroke="#CCE3FF" stroke-width="10"/>
<path fill-rule="evenodd" clip-rule="evenodd" d="M10.2745 218.017H229.232C234.477 218.017 238.728 213.766 238.728 208.521V197.814C238.728 192.57 234.477 188.319 229.232 188.319H10.2745C5.02982 188.319 0.77832 192.57 0.77832 197.814V208.521C0.77832 213.766 5.02982 218.017 10.2745 218.017Z" fill="#CCE3FF"/>
<path fill-rule="evenodd" clip-rule="evenodd" d="M217.89 188.318H240.537C244.984 188.318 248.813 185.18 249.687 180.82L253.223 163.167C254.379 157.392 249.962 152.002 244.073 152.002H221.426C216.979 152.002 213.15 155.141 212.277 159.501L208.741 177.154C207.584 182.929 212.001 188.318 217.89 188.318Z" fill="#B6D4FF"/>
<path fill-rule="evenodd" clip-rule="evenodd" d="M88.5592 188.318H111.206C115.653 188.318 119.482 185.18 120.356 180.82L123.891 163.167C125.048 157.392 120.631 152.002 114.742 152.002H92.0952C87.648 152.002 83.8187 155.141 82.9455 159.501L79.4096 177.154C78.2527 182.929 82.6696 188.318 88.5592 188.318Z" fill="#B6D4FF"/>
<path fill-rule="evenodd" clip-rule="evenodd" d="M186.127 188.318H208.773C213.22 188.318 217.05 185.18 217.923 180.82L221.459 163.167C222.615 157.392 218.199 152.002 212.309 152.002H189.663C185.215 152.002 181.386 155.141 180.513 159.501L176.977 177.154C175.82 182.929 180.237 188.318 186.127 188.318Z" fill="#CCE3FF"/>
<mask id="mask0" mask-type="alpha" maskUnits="userSpaceOnUse" x="184" y="172" width="45" height="95">
<path d="M196.816 194.322V196.906C196.816 198.942 198.456 200.592 200.479 200.592H212.301C214.323 200.592 215.963 198.942 215.963 196.906V193.945H217.167V206.988C215.698 206.076 214.134 205.584 212.512 205.584C212.496 205.584 212.48 205.584 212.464 205.584H199.905C199.889 205.584 199.873 205.584 199.857 205.584C198.215 205.584 196.633 206.088 195.148 207.022V194.322H196.816ZM196.816 189.957H192.979C191.782 189.957 190.811 190.934 190.811 192.14V211.334C186.905 216.888 184.361 225.945 184.361 236.175C184.361 253.07 191.299 266.766 199.857 266.766C200.062 266.766 200.267 266.758 200.471 266.742H211.898C212.102 266.758 212.307 266.766 212.512 266.766C221.07 266.766 228.008 253.07 228.008 236.175C228.008 225.927 225.455 216.856 221.537 211.305V236.175C221.537 237.151 220.901 237.977 220.023 238.256C219.51 245.539 216.343 251.145 212.513 251.145C208.324 251.145 204.929 244.443 204.929 236.175C204.929 227.907 208.324 221.205 212.513 221.205C214.267 221.205 215.883 222.381 217.167 224.356V233.903H212.479C211.281 233.903 210.311 234.88 210.311 236.086C210.311 237.291 211.281 238.268 212.479 238.268H219.336C220.533 238.268 221.504 237.291 221.504 236.086V191.763C221.504 190.558 220.533 189.581 219.336 189.581H215.963V176.294C215.963 174.258 214.323 172.608 212.301 172.608H200.479C198.456 172.608 196.816 174.258 196.816 176.294V189.957Z" fill="white"/>
</mask>
<g mask="url(#mask0)">
<path d="M196.816 194.322V196.906C196.816 198.942 198.456 200.592 200.479 200.592H212.301C214.323 200.592 215.963 198.942 215.963 196.906V193.945H217.167V206.988C215.698 206.076 214.134 205.584 212.512 205.584C212.496 205.584 212.48 205.584 212.464 205.584H199.905C199.889 205.584 199.873 205.584 199.857 205.584C198.215 205.584 196.633 206.088 195.148 207.022V194.322H196.816ZM196.816 189.957H192.979C191.782 189.957 190.811 190.934 190.811 192.14V211.334C186.905 216.888 184.361 225.945 184.361 236.175C184.361 253.07 191.299 266.766 199.857 266.766C200.062 266.766 200.267 266.758 200.471 266.742H211.898C212.102 266.758 212.307 266.766 212.512 266.766C221.07 266.766 228.008 253.07 228.008 236.175C228.008 225.927 225.455 216.856 221.537 211.305V236.175C221.537 237.151 220.901 237.977 220.023 238.256C219.51 245.539 216.343 251.145 212.513 251.145C208.324 251.145 204.929 244.443 204.929 236.175C204.929 227.907 208.324 221.205 212.513 221.205C214.267 221.205 215.883 222.381 217.167 224.356V233.903H212.479C211.281 233.903 210.311 234.88 210.311 236.086C210.311 237.291 211.281 238.268 212.479 238.268H219.336C220.533 238.268 221.504 237.291 221.504 236.086V191.763C221.504 190.558 220.533 189.581 219.336 189.581H215.963V176.294C215.963 174.258 214.323 172.608 212.301 172.608H200.479C198.456 172.608 196.816 174.258 196.816 176.294V189.957Z" fill="#6CA1FF"/>
<path d="M184.363 170.426H228.008V268.141H184.363V170.426Z" fill="#ED4848"/>
</g>
<path fill-rule="evenodd" clip-rule="evenodd" d="M219.985 238.168C219.78 238.233 219.562 238.268 219.336 238.268H212.479C211.282 238.268 210.311 237.291 210.311 236.086C210.311 234.88 211.282 233.903 212.479 233.903H217.168V224.311C215.877 222.301 214.247 221.102 212.476 221.102C208.287 221.102 204.892 227.804 204.892 236.072C204.892 244.34 208.287 251.043 212.476 251.043C216.303 251.043 219.468 245.444 219.985 238.168V238.168Z" fill="#19141E"/>
<path fill-rule="evenodd" clip-rule="evenodd" d="M216.027 186.708H196.88V180.107H216.027V186.708Z" fill="#19141E"/>
<g opacity="0.395764">
<path opacity="0.395764" fill-rule="evenodd" clip-rule="evenodd" d="M195.003 207.041C195.068 206.997 195.133 206.953 195.2 206.909V194.43H196.932V190.066H193.032C191.835 190.066 190.864 191.043 190.864 192.248C190.83 200.623 190.812 206.921 190.812 211.14C190.931 210.982 191.051 210.828 191.173 210.676C191.265 210.549 191.355 210.424 191.437 210.334C191.459 210.311 191.48 210.288 191.5 210.266C187.142 215.68 184.247 225.26 184.247 236.175C184.247 253.07 191.184 266.766 199.742 266.766C199.948 266.766 200.153 266.758 200.357 266.742H211.784C203.511 266.105 196.903 252.664 196.903 236.175C196.903 219.312 203.814 205.635 212.35 205.584L199.791 205.584C199.775 205.584 199.759 205.584 199.742 205.584C198.089 205.584 196.497 206.095 195.003 207.041ZM192.467 209.158C192.351 209.28 192.236 209.405 192.122 209.533C192.224 209.413 192.333 209.293 192.467 209.158ZM217.168 233.903H212.479C211.282 233.903 210.311 234.88 210.311 236.086C210.311 237.291 211.282 238.268 212.479 238.268H219.336C220.533 238.268 221.504 237.291 221.504 236.086V191.763C221.504 190.558 220.533 189.581 219.336 189.581H212.479C211.282 189.581 210.311 190.558 210.311 191.763C210.311 192.968 211.282 193.945 212.479 193.945H217.168V233.903Z" fill="black"/>
</g>
<path d="M237.502 216.586L242.612 211.045L235.204 201.524L226.31 209.241L229.518 216.015" stroke="#19141E" stroke-width="4"/>
<path d="M182.011 216.13L186.592 210.144L178.342 201.342L170.193 209.84L174.008 216.292" stroke="#19141E" stroke-width="4"/>
<path d="M178.251 176.174L181.923 149.25" stroke="#19141E" stroke-width="4" stroke-linecap="round"/>
<path d="M236.901 175.353L233.03 148.458" stroke="#19141E" stroke-width="4" stroke-linecap="round"/>
<path fill-rule="evenodd" clip-rule="evenodd" d="M193.632 160.344H204.087C205.645 160.344 206.908 159.081 206.908 157.523V147.069C206.908 145.511 205.645 144.248 204.087 144.248H193.632C192.075 144.248 190.812 145.511 190.812 147.069V157.523C190.812 159.081 192.075 160.344 193.632 160.344Z" fill="#19141E"/>
<path fill-rule="evenodd" clip-rule="evenodd" d="M196.3 160.344H204.087C205.645 160.344 206.908 159.081 206.908 157.523V147.069C206.908 145.511 205.645 144.248 204.087 144.248H196.3C194.742 144.248 193.479 145.511 193.479 147.069V157.523C193.479 159.081 194.742 160.344 196.3 160.344Z" fill="#405FD3"/>
<mask id="mask1" mask-type="alpha" maskUnits="userSpaceOnUse" x="167" y="126" width="81" height="82">
<path d="M232.603 157.06C232.676 157.061 232.75 157.062 232.824 157.062C237.683 157.062 241.623 153.123 241.623 148.263C241.623 143.403 237.683 139.464 232.824 139.464C231.786 139.464 230.79 139.644 229.865 139.974C225.529 132.172 217.204 126.893 207.645 126.893C198.527 126.893 190.531 131.696 186.05 138.911C185.161 138.609 184.209 138.445 183.218 138.445C178.358 138.445 174.418 142.385 174.418 147.244C174.418 151.866 177.982 155.656 182.512 156.015C184.311 168.282 194.878 177.7 207.645 177.7C220.047 177.7 230.373 168.813 232.603 157.06ZM247.929 181.357C248.196 177.781 245.514 174.666 241.938 174.399L232.954 173.729C229.378 173.462 226.263 176.145 225.996 179.72L224.468 200.198C224.201 203.774 226.884 206.889 230.46 207.156L239.444 207.827C243.02 208.094 246.135 205.411 246.401 201.835L247.929 181.357ZM189.339 179.747C189.32 176.161 186.397 173.27 182.812 173.289L173.803 173.337C170.217 173.356 167.326 176.278 167.345 179.864L167.454 200.398C167.473 203.984 170.396 206.876 173.981 206.857L182.99 206.809C186.576 206.789 189.467 203.867 189.448 200.281L189.339 179.747Z" fill="white"/>
</mask>
<g mask="url(#mask1)">
<path d="M232.603 157.06C232.676 157.061 232.75 157.062 232.824 157.062C237.683 157.062 241.623 153.123 241.623 148.263C241.623 143.403 237.683 139.464 232.824 139.464C231.786 139.464 230.79 139.644 229.865 139.974C225.529 132.172 217.204 126.893 207.645 126.893C198.527 126.893 190.531 131.696 186.05 138.911C185.161 138.609 184.209 138.445 183.218 138.445C178.358 138.445 174.418 142.385 174.418 147.244C174.418 151.866 177.982 155.656 182.512 156.015C184.311 168.282 194.878 177.7 207.645 177.7C220.047 177.7 230.373 168.813 232.603 157.06ZM247.929 181.357C248.196 177.781 245.514 174.666 241.938 174.399L232.954 173.729C229.378 173.462 226.263 176.145 225.996 179.72L224.468 200.198C224.201 203.774 226.884 206.889 230.46 207.156L239.444 207.827C243.02 208.094 246.135 205.411 246.401 201.835L247.929 181.357ZM189.339 179.747C189.32 176.161 186.397 173.27 182.812 173.289L173.803 173.337C170.217 173.356 167.326 176.278 167.345 179.864L167.454 200.398C167.473 203.984 170.396 206.876 173.981 206.857L182.99 206.809C186.576 206.789 189.467 203.867 189.448 200.281L189.339 179.747Z" fill="#6CA1FF"/>
<path d="M167.447 128.721H247.948V207.766H167.447V128.721Z" fill="#ED4848"/>
</g>
<path fill-rule="evenodd" clip-rule="evenodd" d="M217.345 128.832H197.944V122.416H217.345V128.832Z" fill="#19141E"/>
<path fill-rule="evenodd" clip-rule="evenodd" d="M196.3 160.344C194.742 160.344 193.479 159.081 193.479 157.523V147.069C193.479 145.511 194.742 144.248 196.3 144.248H193.633C192.075 144.248 190.812 145.511 190.812 147.069V157.523C190.812 159.081 192.075 160.344 193.633 160.344H196.3Z" fill="#19141E"/>
<path opacity="0.401762" fill-rule="evenodd" clip-rule="evenodd" d="M244.068 180.951L242.455 201.435L244.068 180.951ZM240.07 180.609L238.458 201.093L240.07 180.609Z" stroke="black" stroke-width="9" stroke-linecap="round" stroke-linejoin="round"/>
<path opacity="0.397763" fill-rule="evenodd" clip-rule="evenodd" d="M196.289 160.334H204.077C205.635 160.334 206.897 159.072 206.897 157.514V147.059C206.897 145.502 205.635 144.239 204.077 144.239H196.289C194.732 144.239 193.469 145.502 193.469 147.059V157.514C193.469 159.072 194.732 160.334 196.289 160.334ZM202.745 151.478C201.616 151.478 200.701 150.563 200.701 149.434C200.701 148.306 201.616 147.391 202.745 147.391C203.873 147.391 204.788 148.306 204.788 149.434C204.788 150.563 203.873 151.478 202.745 151.478ZM196.938 151.478C195.809 151.478 194.894 150.563 194.894 149.434C194.894 148.306 195.809 147.391 196.938 147.391C198.066 147.391 198.981 148.306 198.981 149.434C198.981 150.563 198.066 151.478 196.938 151.478ZM202.745 157.384C201.616 157.384 200.701 156.469 200.701 155.34C200.701 154.212 201.616 153.297 202.745 153.297C203.873 153.297 204.788 154.212 204.788 155.34C204.788 156.469 203.873 157.384 202.745 157.384Z" fill="black"/>
<path opacity="0.404204" fill-rule="evenodd" clip-rule="evenodd" d="M241.886 148.189C241.886 153.048 237.946 156.988 233.087 156.988C228.227 156.988 224.287 153.048 224.287 148.189C224.287 143.329 228.227 139.389 233.087 139.389C237.946 139.389 241.886 143.329 241.886 148.189Z" fill="black"/>
<path opacity="0.398763" fill-rule="evenodd" clip-rule="evenodd" d="M189.16 179.793L189.269 200.328C189.289 203.914 186.397 206.836 182.811 206.855L173.803 206.903C170.217 206.922 167.294 204.031 167.276 200.445L167.166 179.91C167.147 176.325 170.039 173.402 173.624 173.383L182.633 173.335C186.219 173.316 189.141 176.207 189.16 179.793Z" fill="black"/>
<path opacity="0.397856" fill-rule="evenodd" clip-rule="evenodd" d="M186.118 139.006C185.229 138.704 184.276 138.541 183.285 138.541C178.426 138.541 174.486 142.48 174.486 147.34C174.486 151.962 178.05 155.751 182.579 156.111C182.401 154.897 182.309 153.655 182.309 152.392C182.309 147.48 183.703 142.893 186.118 139.006Z" fill="black"/>
<path opacity="0.598121" fill-rule="evenodd" clip-rule="evenodd" d="M202.745 157.382C201.616 157.382 200.701 156.467 200.701 155.338C200.701 154.21 201.616 153.295 202.745 153.295C203.873 153.295 204.788 154.21 204.788 155.338C204.788 156.467 203.873 157.382 202.745 157.382Z" fill="black"/>
<path d="M212.613 91.9678C212.613 91.9678 208.379 94.768 207.913 99.6128" stroke="#19141E" stroke-linecap="round"/>
<mask id="mask2" mask-type="alpha" maskUnits="userSpaceOnUse" x="187" y="88" width="44" height="35">
<path d="M212.364 112.342H225.185C227.969 112.342 230.247 110.064 230.247 107.28V103.868C230.247 101.084 227.969 98.8064 225.185 98.8064H192.855C190.071 98.8064 187.794 101.084 187.794 103.868V107.28C187.794 110.064 190.071 112.342 192.855 112.342H205.003V122.496H212.364V112.342ZM210.458 91.5108C210.458 92.922 211.602 94.0662 213.013 94.0662C214.424 94.0662 215.569 92.922 215.569 91.5108C215.569 90.0997 214.424 88.9557 213.013 88.9557C211.602 88.9557 210.458 90.0997 210.458 91.5108Z" fill="white"/>
</mask>
<g mask="url(#mask2)">
<path d="M212.364 112.342H225.185C227.969 112.342 230.247 110.064 230.247 107.28V103.868C230.247 101.084 227.969 98.8064 225.185 98.8064H192.855C190.071 98.8064 187.794 101.084 187.794 103.868V107.28C187.794 110.064 190.071 112.342 192.855 112.342H205.003V122.496H212.364V112.342ZM210.458 91.5108C210.458 92.922 211.602 94.0662 213.013 94.0662C214.424 94.0662 215.569 92.922 215.569 91.5108C215.569 90.0997 214.424 88.9557 213.013 88.9557C211.602 88.9557 210.458 90.0997 210.458 91.5108Z" fill="#6CA1FF"/>
<path d="M187.815 88.9556H225.155V123.144H187.815V88.9556Z" fill="#ED4848"/>
</g>
<g opacity="0.399042">
<path opacity="0.399042" fill-rule="evenodd" clip-rule="evenodd" d="M212.364 122.496H205.003V112.312H212.364V122.496Z" fill="black"/>
</g>
<path opacity="0.400367" fill-rule="evenodd" clip-rule="evenodd" d="M212.364 119.202L205.003 116.777V112.271H212.364V119.202Z" fill="black"/>
<path fill-rule="evenodd" clip-rule="evenodd" d="M225.186 112.342C227.97 112.342 230.248 110.064 230.248 107.28V103.868C230.248 101.084 227.97 98.8064 225.186 98.8064C222.402 98.8064 220.124 101.084 220.124 103.868V107.28C220.124 110.064 222.402 112.342 225.186 112.342Z" fill="#19141E"/>
<path fill-rule="evenodd" clip-rule="evenodd" d="M217.247 105.574C217.247 107.717 215.51 109.455 213.366 109.455C211.223 109.455 209.485 107.717 209.485 105.574C209.485 103.431 211.223 101.693 213.366 101.693C215.51 101.693 217.247 103.431 217.247 105.574Z" fill="white"/>
<path fill-rule="evenodd" clip-rule="evenodd" d="M214.646 105.029C214.646 106.014 213.848 106.812 212.864 106.812C211.879 106.812 211.081 106.014 211.081 105.029C211.081 104.044 211.879 103.246 212.864 103.246C213.848 103.246 214.646 104.044 214.646 105.029Z" fill="#19141E"/>
<path fill-rule="evenodd" clip-rule="evenodd" d="M198.322 105.574C198.322 107.717 196.585 109.455 194.441 109.455C192.298 109.455 190.56 107.717 190.56 105.574C190.56 103.431 192.298 101.693 194.441 101.693C196.585 101.693 198.322 103.431 198.322 105.574Z" fill="white"/>
<path fill-rule="evenodd" clip-rule="evenodd" d="M195.722 105.029C195.722 106.014 194.923 106.812 193.939 106.812C192.954 106.812 192.156 106.014 192.156 105.029C192.156 104.044 192.954 103.246 193.939 103.246C194.923 103.246 195.722 104.044 195.722 105.029Z" fill="#19141E"/>
<path fill-rule="evenodd" clip-rule="evenodd" d="M204.791 102.914L201.32 105.548L204.791 108.234" fill="#19141E"/>
<path fill-rule="evenodd" clip-rule="evenodd" d="M119.708 34.5606H143.103L146.263 3H122.867L119.708 34.5606Z" fill="#DCEEFF"/>
<path fill-rule="evenodd" clip-rule="evenodd" d="M119.708 34.5606H143.103L146.263 3H122.867L119.708 34.5606Z" stroke="#DCEEFF" stroke-width="5"/>
<path fill-rule="evenodd" clip-rule="evenodd" d="M118.445 34.5606H142.275L145.435 3H121.604L118.445 34.5606Z" fill="white"/>
<path fill-rule="evenodd" clip-rule="evenodd" d="M118.445 34.5606H142.275L145.435 3H121.604L118.445 34.5606Z" stroke="#DCEEFF" stroke-width="5"/>
<path fill-rule="evenodd" clip-rule="evenodd" d="M123.01 30.3935H138.546L140.871 7.16724H125.335L123.01 30.3935Z" fill="#DCEEFF"/>
<path fill-rule="evenodd" clip-rule="evenodd" d="M181.496 12.3867L179.307 34.2529H150.558L152.748 12.3867H181.496Z" fill="#DCEEFF"/>
<path fill-rule="evenodd" clip-rule="evenodd" d="M181.496 12.3867L179.307 34.2529H150.558L152.748 12.3867H181.496Z" stroke="#DCEEFF" stroke-width="5"/>
<path fill-rule="evenodd" clip-rule="evenodd" d="M180.853 12.3867L178.663 34.2529H149.38L151.57 12.3867H180.853Z" fill="white"/>
<path fill-rule="evenodd" clip-rule="evenodd" d="M180.853 12.3867L178.663 34.2529H149.38L151.57 12.3867H180.853Z" stroke="#DCEEFF" stroke-width="5"/>
<path fill-rule="evenodd" clip-rule="evenodd" d="M174.678 16.6763L173.348 29.9632H155.554L156.885 16.6763H174.678Z" fill="#CCE3FF"/>
<path fill-rule="evenodd" clip-rule="evenodd" d="M84.3125 26.0801C84.3125 27.7538 85.6696 29.111 87.3436 29.111H114.614V23.049H87.3436C85.6696 23.049 84.3125 24.4061 84.3125 26.0801Z" fill="#CCE3FF"/>
<path fill-rule="evenodd" clip-rule="evenodd" d="M102.654 26.0801C102.654 27.0491 103.44 27.8347 104.409 27.8347H114.541C114.581 27.8347 114.614 27.8022 114.614 27.7619V24.3981C114.614 24.3579 114.581 24.3254 114.541 24.3254H104.409C103.44 24.3254 102.654 25.111 102.654 26.0801Z" fill="#DCEEFF"/>
<path fill-rule="evenodd" clip-rule="evenodd" d="M80.5063 29.111V35.173H110.272C111.946 35.173 113.303 33.8159 113.303 32.1421C113.303 30.4681 111.946 29.111 110.272 29.111H80.5063Z" fill="#CCE3FF"/>
<path fill-rule="evenodd" clip-rule="evenodd" d="M80.5063 30.4043V33.8799H92.7449C93.7046 33.8799 94.4827 33.1018 94.4827 32.1421C94.4827 31.1821 93.7046 30.4043 92.7449 30.4043H80.5063Z" fill="#DCEEFF"/>
<path fill-rule="evenodd" clip-rule="evenodd" d="M70.8428 39.2001H173.451V34.8897H70.8428V39.2001Z" fill="#DCEEFF"/>
<path fill-rule="evenodd" clip-rule="evenodd" d="M173.451 39.2001H190.331V34.8897H173.451V39.2001Z" fill="#CCE3FF"/>
<path fill-rule="evenodd" clip-rule="evenodd" d="M95.8511 39.2L103.864 51.7711V39.2H95.8511Z" fill="#B6D4FF"/>
<path fill-rule="evenodd" clip-rule="evenodd" d="M91.417 39.2L99.43 51.7711H103.864L95.8513 39.2H91.417Z" fill="#CCE3FF"/>
<path fill-rule="evenodd" clip-rule="evenodd" d="M154.621 39.2L162.634 51.7711V39.2H154.621Z" fill="#B6D4FF"/>
<path fill-rule="evenodd" clip-rule="evenodd" d="M150.187 39.2L158.199 51.7711H162.634L154.621 39.2H150.187Z" fill="#CCE3FF"/>
<path fill-rule="evenodd" clip-rule="evenodd" d="M290.062 24.4455C289.218 31.5256 283.192 37.0185 275.883 37.0185C268.575 37.0185 262.549 31.5256 261.705 24.4455H290.062Z" fill="#ECF6FF"/>
<path fill-rule="evenodd" clip-rule="evenodd" d="M235.169 15.8398C234.325 22.92 228.299 28.4129 220.99 28.4129C213.682 28.4129 207.656 22.92 206.812 15.8398H235.169Z" fill="#ECF6FF"/>
<path fill-rule="evenodd" clip-rule="evenodd" d="M235.169 24.4455C234.325 31.5256 228.299 37.0185 220.99 37.0185C213.682 37.0185 207.656 31.5256 206.812 24.4455H235.169Z" fill="#ECF6FF"/>
<path fill-rule="evenodd" clip-rule="evenodd" d="M244.066 26.4395H255.643L252.526 36.6935H247.183L244.066 26.4395Z" fill="#DCEEFF"/>
<path fill-rule="evenodd" clip-rule="evenodd" d="M187.962 26.4395H199.539L196.422 36.6935H191.079L187.962 26.4395Z" fill="#DCEEFF"/>
<path fill-rule="evenodd" clip-rule="evenodd" d="M244.066 19.7435H255.643L252.526 29.9978H247.183L244.066 19.7435Z" fill="#DCEEFF"/>
<path fill-rule="evenodd" clip-rule="evenodd" d="M178.4 39.1359H281.009V34.8258H178.4V39.1359Z" fill="#DCEEFF"/>
<path fill-rule="evenodd" clip-rule="evenodd" d="M281.009 39.1359H297.889V34.8258H281.009V39.1359Z" fill="#CCE3FF"/>
<path fill-rule="evenodd" clip-rule="evenodd" d="M203.408 39.136L211.421 51.7071V39.136H203.408Z" fill="#B6D4FF"/>
<path fill-rule="evenodd" clip-rule="evenodd" d="M198.975 39.136L206.988 51.7071H211.422L203.409 39.136H198.975Z" fill="#CCE3FF"/>
<path fill-rule="evenodd" clip-rule="evenodd" d="M262.178 39.136L270.191 51.7071V39.136H262.178Z" fill="#B6D4FF"/>
<path fill-rule="evenodd" clip-rule="evenodd" d="M257.744 39.136L265.757 51.7071H270.191L262.178 39.136H257.744Z" fill="#CCE3FF"/>
<path d="M99.9263 204.732L103.082 233.983" stroke="#19141E" stroke-width="4" stroke-linecap="round"/>
<path d="M124.609 204.732L127.765 233.983" stroke="#19141E" stroke-width="4" stroke-linecap="round"/>
<path d="M104.41 152.295L100.043 200.753" stroke="#19141E" stroke-width="4" stroke-linecap="round"/>
<path d="M126.947 151.928C126.939 150.388 125.692 149.146 124.162 149.154C122.632 149.161 121.398 150.416 121.406 151.956L121.647 200.291C121.655 201.831 122.901 203.073 124.431 203.066C125.961 203.058 127.195 201.803 127.187 200.263L126.947 151.928Z" fill="#19141E"/>
<mask id="mask3" mask-type="alpha" maskUnits="userSpaceOnUse" x="87" y="142" width="54" height="125">
<path d="M114.401 259.561L113.801 254.01L110.274 221.311C110.101 219.703 108.667 218.542 107.068 218.716L94.7242 220.067C93.1271 220.241 91.9732 221.684 92.1466 223.292L95.4879 254.262C91.1662 255.261 87.943 259.155 87.9406 263.808V263.813V266.762H115.179H140.678L140.36 263.808L139.3 254.01L135.773 221.311C135.6 219.703 134.166 218.542 132.567 218.716L120.223 220.067C118.626 220.241 117.472 221.684 117.646 223.292L120.987 254.262C118.079 254.934 115.668 256.918 114.401 259.561ZM126.969 156.457C128.841 155.059 130.063 152.823 130.071 150.31C130.085 146.083 126.661 142.614 122.462 142.6L105.201 142.541C101.002 142.527 97.5554 145.974 97.5414 150.2C97.5272 154.426 100.951 157.896 105.15 157.91L121.436 157.965L121.406 151.956C121.398 150.416 122.632 149.161 124.162 149.153C125.692 149.146 126.939 150.388 126.947 151.928L126.969 156.457ZM118.203 202.264C118.203 206.115 121.305 209.236 125.13 209.236C128.955 209.236 132.057 206.115 132.057 202.264C132.057 198.414 128.955 195.293 125.13 195.293C121.305 195.293 118.203 198.414 118.203 202.264ZM92.7334 202.264C92.7334 206.115 95.8347 209.236 99.6599 209.236C103.485 209.236 106.587 206.115 106.587 202.264C106.587 198.414 103.485 195.293 99.6599 195.293C95.8347 195.293 92.7334 198.414 92.7334 202.264Z" fill="white"/>
</mask>
<g mask="url(#mask3)">
<path d="M114.401 259.561L113.801 254.01L110.274 221.311C110.101 219.703 108.667 218.542 107.068 218.716L94.7242 220.067C93.1271 220.241 91.9732 221.684 92.1466 223.292L95.4879 254.262C91.1662 255.261 87.943 259.155 87.9406 263.808V263.813V266.762H115.179H140.678L140.36 263.808L139.3 254.01L135.773 221.311C135.6 219.703 134.166 218.542 132.567 218.716L120.223 220.067C118.626 220.241 117.472 221.684 117.646 223.292L120.987 254.262C118.079 254.934 115.668 256.918 114.401 259.561ZM126.969 156.457C128.841 155.059 130.063 152.823 130.071 150.31C130.085 146.083 126.661 142.614 122.462 142.6L105.201 142.541C101.002 142.527 97.5554 145.974 97.5414 150.2C97.5272 154.426 100.951 157.896 105.15 157.91L121.436 157.965L121.406 151.956C121.398 150.416 122.632 149.161 124.162 149.153C125.692 149.146 126.939 150.388 126.947 151.928L126.969 156.457ZM118.203 202.264C118.203 206.115 121.305 209.236 125.13 209.236C128.955 209.236 132.057 206.115 132.057 202.264C132.057 198.414 128.955 195.293 125.13 195.293C121.305 195.293 118.203 198.414 118.203 202.264ZM92.7334 202.264C92.7334 206.115 95.8347 209.236 99.6599 209.236C103.485 209.236 106.587 206.115 106.587 202.264C106.587 198.414 103.485 195.293 99.6599 195.293C95.8347 195.293 92.7334 198.414 92.7334 202.264Z" fill="#6CA1FF"/>
<path d="M87.8189 142.299H140.678V266.929H87.8189V142.299Z" fill="#F6B852"/>
</g>
<path opacity="0.397182" fill-rule="evenodd" clip-rule="evenodd" d="M113.458 263.787C113.459 262.265 113.804 260.824 114.42 259.539L113.819 253.988L110.293 221.289C110.119 219.681 108.686 218.52 107.086 218.695L94.7428 220.045C93.1457 220.22 91.9918 221.662 92.1652 223.27L95.5064 254.241C91.1848 255.24 87.9616 259.134 87.9592 263.787V266.74H140.678L140.36 263.787H113.458Z" fill="black"/>
<path opacity="0.401204" fill-rule="evenodd" clip-rule="evenodd" d="M92.7375 202.251C92.7375 206.101 95.8389 209.222 99.6641 209.222C103.49 209.222 106.591 206.101 106.591 202.251C106.591 198.4 103.49 195.279 99.6641 195.279C95.8389 195.279 92.7375 198.4 92.7375 202.251Z" fill="black"/>
<path opacity="0.596656" fill-rule="evenodd" clip-rule="evenodd" d="M129.706 225.298C129.706 226.41 130.602 227.312 131.707 227.312C132.812 227.312 133.707 226.41 133.707 225.298C133.707 224.186 132.812 223.284 131.707 223.284C130.602 223.284 129.706 224.186 129.706 225.298ZM130.413 231.865C130.413 232.978 131.309 233.879 132.414 233.879C133.519 233.879 134.415 232.978 134.415 231.865C134.415 230.753 133.519 229.852 132.414 229.852C131.309 229.852 130.413 230.753 130.413 231.865Z" fill="black"/>
<path opacity="0.396019" fill-rule="evenodd" clip-rule="evenodd" d="M131.8 256.727C131.8 258.19 132.979 259.377 134.432 259.377C135.886 259.377 137.064 258.19 137.064 256.727C137.064 255.264 135.886 254.078 134.432 254.078C132.979 254.078 131.8 255.264 131.8 256.727Z" fill="black"/>
<path d="M96.2861 134.624L85.4156 158.097" stroke="#19141E" stroke-width="4" stroke-linecap="round"/>
<path fill-rule="evenodd" clip-rule="evenodd" d="M118.904 142.542H110.474V135.752H118.904V142.542Z" fill="#19141E"/>
<path d="M137.148 160.527L134.816 134.936" stroke="#19141E" stroke-width="4" stroke-linecap="round"/>
<mask id="mask4" mask-type="alpha" maskUnits="userSpaceOnUse" x="77" y="110" width="69" height="65">
<path d="M84.5386 170.862L87.2519 173.284C87.3759 173.145 87.5719 172.911 87.8161 172.593C88.2156 172.074 88.6139 171.499 88.9874 170.88C89.996 169.208 90.6517 167.515 90.7663 165.834C90.9203 163.574 90.0509 161.565 88.0661 160.116C86.0795 158.667 84.0088 158.542 82.2368 159.684C80.9733 160.497 79.9996 161.847 79.1986 163.585C78.794 164.463 78.4592 165.389 78.1865 166.314C78.0913 166.636 78.0102 166.937 77.9429 167.209C77.9012 167.377 77.8724 167.503 77.8564 167.579L81.4144 168.333C81.4222 168.296 81.4418 168.21 81.4734 168.083C81.5283 167.861 81.5954 167.612 81.6749 167.343C81.9013 166.575 82.1781 165.809 82.5016 165.108C83.0394 163.941 83.6431 163.104 84.2063 162.741C84.6749 162.439 85.1157 162.466 85.9222 163.055C86.8655 163.743 87.2092 164.537 87.1376 165.587C87.069 166.594 86.6094 167.781 85.8729 169.002C85.5749 169.496 85.2537 169.959 84.9337 170.375C84.823 170.519 84.7213 170.646 84.6315 170.753C84.5816 170.813 84.5497 170.85 84.5386 170.862ZM129.452 136.052L129.619 136.383C131.11 139.33 134.741 140.522 137.689 139.031L138.186 138.78C141.133 137.289 142.325 133.658 140.834 130.71L132.398 114.033C131.264 111.789 128.889 110.563 126.519 110.763C125.399 110.304 124.175 110.05 122.895 110.05H106.482C104.175 110.05 102.051 110.873 100.389 112.239C98.1968 112.725 96.3576 114.425 95.8196 116.747L91.6011 134.954C90.8557 138.172 92.8786 141.415 96.0965 142.16L96.6389 142.286C99.7038 142.996 102.791 141.195 103.722 138.241C104.597 138.505 105.524 138.647 106.482 138.647H122.895C125.422 138.647 127.73 137.66 129.452 136.052ZM142.221 172.536L145.852 172.751C145.854 172.709 145.857 172.644 145.86 172.557C145.906 171.122 145.776 169.404 145.312 167.708C144.325 164.107 142.048 161.775 138.316 161.922C136.214 162.005 134.645 162.882 133.807 164.442C133.153 165.657 133.021 167.116 133.251 168.769C133.395 169.798 133.676 170.867 134.054 171.947C134.245 172.493 134.45 173.009 134.655 173.48C134.781 173.769 134.881 173.984 134.944 174.111L138.202 172.493C138.195 172.48 138.178 172.444 138.151 172.386C138.103 172.284 138.048 172.163 137.989 172.028C137.818 171.635 137.646 171.202 137.486 170.745C137.182 169.876 136.96 169.031 136.854 168.267C136.582 166.311 136.956 165.616 138.459 165.556C140.204 165.487 141.216 166.524 141.804 168.669C142.002 169.392 142.126 170.183 142.187 170.993C142.23 171.555 142.237 172.053 142.225 172.441C142.223 172.495 142.222 172.527 142.221 172.536Z" fill="white"/>
</mask>
<g mask="url(#mask4)">
<path d="M84.5386 170.862L87.2519 173.284C87.3759 173.145 87.5719 172.911 87.8161 172.593C88.2156 172.074 88.6139 171.499 88.9874 170.88C89.996 169.208 90.6517 167.515 90.7663 165.834C90.9203 163.574 90.0509 161.565 88.0661 160.116C86.0795 158.667 84.0088 158.542 82.2368 159.684C80.9733 160.497 79.9996 161.847 79.1986 163.585C78.794 164.463 78.4592 165.389 78.1865 166.314C78.0913 166.636 78.0102 166.937 77.9429 167.209C77.9012 167.377 77.8724 167.503 77.8564 167.579L81.4144 168.333C81.4222 168.296 81.4418 168.21 81.4734 168.083C81.5283 167.861 81.5954 167.612 81.6749 167.343C81.9013 166.575 82.1781 165.809 82.5016 165.108C83.0394 163.941 83.6431 163.104 84.2063 162.741C84.6749 162.439 85.1157 162.466 85.9222 163.055C86.8655 163.743 87.2092 164.537 87.1376 165.587C87.069 166.594 86.6094 167.781 85.8729 169.002C85.5749 169.496 85.2537 169.959 84.9337 170.375C84.823 170.519 84.7213 170.646 84.6315 170.753C84.5816 170.813 84.5497 170.85 84.5386 170.862ZM129.452 136.052L129.619 136.383C131.11 139.33 134.741 140.522 137.689 139.031L138.186 138.78C141.133 137.289 142.325 133.658 140.834 130.71L132.398 114.033C131.264 111.789 128.889 110.563 126.519 110.763C125.399 110.304 124.175 110.05 122.895 110.05H106.482C104.175 110.05 102.051 110.873 100.389 112.239C98.1968 112.725 96.3576 114.425 95.8196 116.747L91.6011 134.954C90.8557 138.172 92.8786 141.415 96.0965 142.16L96.6389 142.286C99.7038 142.996 102.791 141.195 103.722 138.241C104.597 138.505 105.524 138.647 106.482 138.647H122.895C125.422 138.647 127.73 137.66 129.452 136.052ZM142.221 172.536L145.852 172.751C145.854 172.709 145.857 172.644 145.86 172.557C145.906 171.122 145.776 169.404 145.312 167.708C144.325 164.107 142.048 161.775 138.316 161.922C136.214 162.005 134.645 162.882 133.807 164.442C133.153 165.657 133.021 167.116 133.251 168.769C133.395 169.798 133.676 170.867 134.054 171.947C134.245 172.493 134.45 173.009 134.655 173.48C134.781 173.769 134.881 173.984 134.944 174.111L138.202 172.493C138.195 172.48 138.178 172.444 138.151 172.386C138.103 172.284 138.048 172.163 137.989 172.028C137.818 171.635 137.646 171.202 137.486 170.745C137.182 169.876 136.96 169.031 136.854 168.267C136.582 166.311 136.956 165.616 138.459 165.556C140.204 165.487 141.216 166.524 141.804 168.669C142.002 169.392 142.126 170.183 142.187 170.993C142.23 171.555 142.237 172.053 142.225 172.441C142.223 172.495 142.222 172.527 142.221 172.536Z" fill="#6CA1FF"/>
<path d="M77.975 109.566H146.352V177.215H77.975V109.566Z" fill="#F6B852"/>
</g>
<path fill-rule="evenodd" clip-rule="evenodd" d="M114.501 129.274H106.444C104.844 129.274 103.534 127.965 103.534 126.364V121.639C103.534 120.039 104.844 118.73 106.444 118.73H114.501C116.102 118.73 117.411 120.039 117.411 121.639V126.364C117.411 127.965 116.102 129.274 114.501 129.274Z" fill="#19141E"/>
<g opacity="0.399182">
<path opacity="0.399182" d="M84.5811 170.732L87.2944 173.154C87.4184 173.015 87.6143 172.78 87.8586 172.463C88.258 171.944 88.6563 171.369 89.0299 170.75C90.0385 169.078 90.6942 167.385 90.8088 165.704C90.9628 163.444 90.0933 161.435 88.1085 159.986C86.1219 158.537 84.0513 158.412 82.2792 159.554C81.0158 160.367 80.0421 161.717 79.241 163.455C78.8365 164.332 78.5017 165.259 78.2289 166.183C78.1337 166.506 78.0527 166.807 77.9854 167.079C77.9436 167.247 77.9149 167.373 77.8988 167.449L81.4568 168.203C81.4647 168.166 81.4843 168.08 81.5159 167.953C81.5707 167.731 81.6379 167.482 81.7174 167.213C81.9438 166.445 82.2205 165.679 82.544 164.978C83.0819 163.811 83.6856 162.974 84.2488 162.611C84.7173 162.309 85.1582 162.336 85.9647 162.924C86.908 163.613 87.2516 164.407 87.1801 165.457C87.1114 166.464 86.6518 167.65 85.9154 168.872C85.6174 169.366 85.2962 169.829 84.9762 170.245C84.8655 170.389 84.7637 170.515 84.674 170.623C84.6241 170.683 84.5921 170.72 84.5811 170.732ZM99.9174 136.081C100.166 137.065 99.7629 138.136 98.8528 138.694C97.7318 139.381 96.2663 139.029 95.5794 137.908C94.8925 136.787 95.2443 135.321 96.3653 134.634C97.0375 134.222 97.8337 134.184 98.5115 134.461C97.4405 132.91 96.8118 131.033 96.8118 129.017V119.669C96.8118 116.682 98.1908 114.002 100.344 112.233C98.1515 112.719 96.3123 114.419 95.7743 116.741L91.5558 134.948C90.8104 138.166 92.8334 141.409 96.0512 142.154L96.5936 142.28C99.6585 142.99 102.746 141.189 103.677 138.235C102.261 137.808 100.979 137.062 99.9174 136.081ZM132.424 114.069C130.933 111.122 127.302 109.93 124.354 111.421L123.858 111.672C120.91 113.163 119.718 116.795 121.209 119.742L129.645 136.419C131.136 139.367 134.767 140.559 137.715 139.068L138.211 138.816C141.159 137.325 142.351 133.694 140.86 130.746L132.424 114.069ZM132.714 133.758C132.334 132.499 133.045 131.171 134.304 130.79C135.562 130.41 136.891 131.122 137.271 132.381C137.651 133.639 136.939 134.967 135.681 135.348C134.422 135.728 133.094 135.016 132.714 133.758ZM124.798 118.108C124.418 116.85 125.13 115.521 126.388 115.141C127.646 114.761 128.975 115.473 129.355 116.731C129.735 117.989 129.023 119.318 127.765 119.698C126.507 120.078 125.178 119.366 124.798 118.108ZM142.22 172.56L145.85 172.774C145.853 172.733 145.856 172.668 145.859 172.581C145.904 171.145 145.775 169.428 145.31 167.732C144.323 164.13 142.046 161.799 138.314 161.946C136.212 162.029 134.644 162.906 133.805 164.466C133.152 165.681 133.02 167.14 133.25 168.792C133.393 169.822 133.674 170.891 134.052 171.97C134.243 172.517 134.448 173.033 134.654 173.504C134.779 173.793 134.88 174.007 134.943 174.134L138.2 172.517C138.194 172.504 138.176 172.467 138.149 172.41C138.101 172.307 138.047 172.187 137.988 172.051C137.817 171.659 137.645 171.226 137.485 170.769C137.181 169.9 136.959 169.054 136.852 168.291C136.58 166.335 136.954 165.639 138.457 165.58C140.202 165.511 141.215 166.548 141.802 168.693C142 169.416 142.125 170.207 142.186 171.016C142.228 171.579 142.236 172.077 142.223 172.465C142.222 172.518 142.22 172.551 142.22 172.56Z" fill="black"/>
</g>
<g opacity="0.601772">
<path opacity="0.601772" fill-rule="evenodd" clip-rule="evenodd" d="M132.721 133.752C133.101 135.011 134.429 135.722 135.688 135.342C136.946 134.962 137.658 133.634 137.278 132.375C136.898 131.117 135.569 130.405 134.311 130.785C133.052 131.165 132.341 132.494 132.721 133.752ZM124.805 118.103C125.185 119.361 126.514 120.073 127.772 119.693C129.03 119.312 129.742 117.984 129.362 116.726C128.982 115.467 127.653 114.755 126.395 115.136C125.137 115.516 124.425 116.844 124.805 118.103ZM95.5811 137.922C96.268 139.043 97.7335 139.395 98.8545 138.708C99.9752 138.021 100.327 136.555 99.6401 135.434C98.9534 134.314 97.4879 133.962 96.367 134.649C95.246 135.336 94.8942 136.801 95.5811 137.922Z" fill="black"/>
</g>
<path d="M98.3496 94.3211V77.3856" stroke="#19141E"/>
<path fill-rule="evenodd" clip-rule="evenodd" d="M96.8255 101.509H103.828V91.0717H96.8255C93.9552 91.0717 91.6068 93.4201 91.6068 96.2904C91.6068 99.1608 93.9552 101.509 96.8255 101.509Z" fill="#19141E"/>
<mask id="mask5" mask-type="alpha" maskUnits="userSpaceOnUse" x="94" y="70" width="38" height="43">
<path d="M102.104 74.0626C101.862 72.205 100.273 70.7704 98.3492 70.7704C96.2581 70.7704 94.5627 72.4658 94.5627 74.5571C94.5627 76.6484 96.2581 78.3437 98.3492 78.3437C99.8787 78.3437 101.196 77.4368 101.794 76.1315L104.435 74.111L108.028 76.8603L111.619 74.1112L115.211 76.8603L118.801 74.1112L122.393 76.8603L124.375 75.3428C124.737 77.057 126.258 78.3437 128.08 78.3437C130.171 78.3437 131.867 76.6484 131.867 74.5571C131.867 72.4658 130.171 70.7704 128.08 70.7704C126.375 70.7704 124.934 71.8971 124.459 73.4464L122.393 75.0282L118.801 72.2791L115.21 75.0282L111.619 72.2791L108.028 75.0283L104.435 72.2792L102.104 74.0626ZM99.7171 109.222H126.973C129.143 109.222 130.903 107.463 130.903 105.293V87.2882C130.903 85.1181 129.143 83.3587 126.973 83.3587H99.7171C97.5469 83.3587 95.7878 85.1181 95.7878 87.2882V105.293C95.7878 107.463 97.5469 109.222 99.7171 109.222ZM102.258 112.786H124.433C125.417 112.786 126.215 111.988 126.215 111.004C126.215 110.02 125.417 109.222 124.433 109.222H102.258C101.273 109.222 100.476 110.02 100.476 111.004C100.476 111.988 101.273 112.786 102.258 112.786Z" fill="white"/>
</mask>
<g mask="url(#mask5)">
<path d="M102.104 74.0626C101.862 72.205 100.273 70.7704 98.3492 70.7704C96.2581 70.7704 94.5627 72.4658 94.5627 74.5571C94.5627 76.6484 96.2581 78.3437 98.3492 78.3437C99.8787 78.3437 101.196 77.4368 101.794 76.1315L104.435 74.111L108.028 76.8603L111.619 74.1112L115.211 76.8603L118.801 74.1112L122.393 76.8603L124.375 75.3428C124.737 77.057 126.258 78.3437 128.08 78.3437C130.171 78.3437 131.867 76.6484 131.867 74.5571C131.867 72.4658 130.171 70.7704 128.08 70.7704C126.375 70.7704 124.934 71.8971 124.459 73.4464L122.393 75.0282L118.801 72.2791L115.21 75.0282L111.619 72.2791L108.028 75.0283L104.435 72.2792L102.104 74.0626ZM99.7171 109.222H126.973C129.143 109.222 130.903 107.463 130.903 105.293V87.2882C130.903 85.1181 129.143 83.3587 126.973 83.3587H99.7171C97.5469 83.3587 95.7878 85.1181 95.7878 87.2882V105.293C95.7878 107.463 97.5469 109.222 99.7171 109.222ZM102.258 112.786H124.433C125.417 112.786 126.215 111.988 126.215 111.004C126.215 110.02 125.417 109.222 124.433 109.222H102.258C101.273 109.222 100.476 110.02 100.476 111.004C100.476 111.988 101.273 112.786 102.258 112.786Z" fill="#6CA1FF"/>
<path d="M94.463 70.7706H132.289V112.718H94.463V70.7706Z" fill="#F6B852"/>
</g>
<path opacity="0.404367" d="M118.801 74.1113L122.393 76.8604L124.375 75.3574L124.468 73.44L122.393 75.0283L118.801 72.2791L115.21 75.0283L111.619 72.2791L108.028 75.0283L104.435 72.2793L102.136 74.1111L101.753 76.1439L104.435 74.1111L108.028 76.8604L111.619 74.1113L115.21 76.8604L118.801 74.1113Z" fill="black"/>
<path opacity="0.395624" fill-rule="evenodd" clip-rule="evenodd" d="M102.257 112.786H124.433C125.417 112.786 126.215 111.989 126.215 111.004C126.215 110.02 125.417 109.222 124.433 109.222H102.257C101.273 109.222 100.475 110.02 100.475 111.004C100.475 111.989 101.273 112.786 102.257 112.786Z" fill="black"/>
<path fill-rule="evenodd" clip-rule="evenodd" d="M132.161 101.509H125.159V91.0717H132.161C135.032 91.0717 137.38 93.4201 137.38 96.2904C137.38 99.1608 135.032 101.509 132.161 101.509Z" fill="#19141E"/>
<path fill-rule="evenodd" clip-rule="evenodd" d="M98.3497 96.2905C98.3497 100.282 100.934 103.517 104.123 103.517C107.311 103.517 109.896 100.282 109.896 96.2905C109.896 92.2994 107.311 89.0639 104.123 89.0639C100.934 89.0639 98.3497 92.2994 98.3497 96.2905Z" fill="#19141E"/>
<path fill-rule="evenodd" clip-rule="evenodd" d="M106.835 103.517H104.122V89.0639H106.835V103.517Z" fill="#19141E"/>
<path fill-rule="evenodd" clip-rule="evenodd" d="M101.063 96.2905C101.063 100.282 103.647 103.517 106.836 103.517C110.024 103.517 112.608 100.282 112.608 96.2905C112.608 92.2994 110.024 89.0639 106.836 89.0639C103.647 89.0639 101.063 92.2994 101.063 96.2905Z" fill="white"/>
<path fill-rule="evenodd" clip-rule="evenodd" d="M103.88 95.8055C103.88 97.2104 104.79 98.3495 105.912 98.3495C107.035 98.3495 107.944 97.2104 107.944 95.8055C107.944 94.4007 107.035 93.2616 105.912 93.2616C104.79 93.2616 103.88 94.4007 103.88 95.8055Z" fill="#19141E"/>
<path d="M128.081 94.3211V78.1658" stroke="#19141E"/>
</svg>
